<svg width="34" height="34" viewBox="0 0 34 34" fill="none" xmlns="http://www.w3.org/2000/svg">
<g clip-path="url(#clip0_309_3351)">
<path d="M17.0029 33.7146C26.2349 33.7146 33.7163 26.2313 33.7163 17.0012C33.7163 7.77108 26.2303 0.287109 17.0029 0.287109C7.77542 0.287109 0.286133 7.77174 0.286133 17.0038C0.286133 26.2359 7.77077 33.7146 17.0029 33.7146Z" fill="white"/>
<path fill-rule="evenodd" clip-rule="evenodd" d="M17.003 0.573187C7.92764 0.573187 0.573187 7.92764 0.573187 17.003C0.573187 26.0783 7.92764 33.4268 17.003 33.4268C26.0783 33.4268 33.4268 26.0724 33.4268 17.003C33.4268 7.93362 26.0724 0.573187 17.003 0.573187ZM0 17.003C0 7.61149 7.61149 0 17.003 0C26.3945 0 34.006 7.61149 34.006 17.003C34.006 26.3945 26.3951 34.006 17.0063 34.006C7.61747 34.006 0 26.3892 0 17.003Z" fill="#231F20"/>
<path d="M17.0029 31.4608C24.989 31.4608 31.4634 24.9863 31.4634 17.0002C31.4634 9.01415 24.9863 2.53906 17.0029 2.53906C9.01946 2.53906 2.53906 9.01348 2.53906 17.0029C2.53906 24.9923 9.01348 31.4608 17.0029 31.4608Z" fill="#009F55"/>
<path fill-rule="evenodd" clip-rule="evenodd" d="M17.0028 3.11317C9.33289 3.11317 3.11485 9.33121 3.11485 17.0012C3.11485 24.6711 9.33024 30.8885 17.0028 30.8885C24.6754 30.8885 30.8875 24.6711 30.8875 17.0038C30.8875 9.33653 24.6701 3.11317 17.0028 3.11317ZM1.96582 17.0038C1.96582 8.69759 8.69661 1.9668 17.0028 1.9668C25.3091 1.9668 32.0339 8.69759 32.0339 17.0038C32.0339 25.31 25.3051 32.0348 17.0028 32.0348C8.7006 32.0348 1.96582 25.306 1.96582 17.0038Z" fill="#231F20"/>
<path d="M23.26 23.5111C23.0664 23.6332 22.8473 23.7088 22.6197 23.7322C22.3633 23.7712 22.1769 23.7635 22.0605 23.709C22.0292 23.6931 21.998 23.6393 21.9668 23.5456C21.9548 23.4689 21.9228 23.3967 21.8738 23.3364C21.8574 23.3203 21.8373 23.3082 21.8154 23.3012C21.4943 23.1257 21.159 22.9775 20.8131 22.8582C19.9778 22.5482 19.1033 22.3562 18.2149 22.2877C17.7566 21.1922 17.508 20.5944 17.469 20.4944C17.1976 19.8032 17.1121 19.4069 17.2126 19.3055L25.9751 10.5396C26.0296 10.4852 26.197 10.4965 26.4759 10.5742C26.7549 10.6519 26.9462 10.7489 27.0239 10.8399C27.1016 10.9308 27.2338 11.1892 27.3965 11.5857C27.5592 11.9822 27.7425 12.2572 27.9212 12.4359C28.1541 12.6692 28.5619 12.8685 29.1446 13.0336C29.6888 13.1736 29.9879 13.3017 30.0419 13.4182C30.1663 13.6666 30.2363 14.1481 30.2518 14.8628C30.2823 15.5774 30.2396 16.0242 30.1236 16.2031C30.0691 16.2881 29.8745 16.3359 29.5411 16.3426C29.2077 16.3492 29.0011 16.3154 28.9002 16.2144C28.8314 16.1549 28.779 16.0787 28.7481 15.9932C28.7328 15.9315 28.7135 15.8963 28.6903 15.8883C28.3678 15.6819 28.0331 15.4951 27.6881 15.329C26.9189 14.9482 26.2703 14.749 25.742 14.7313L23.8444 16.6335C24.3558 16.8074 24.8541 17.0176 25.3355 17.2625C25.4759 17.3714 25.5614 17.8064 25.5919 18.5676C25.6384 19.3287 25.5919 19.7793 25.4524 19.9192C25.3665 20.0046 25.2116 20.0514 24.9875 20.0593C24.8038 20.0748 24.6191 20.0425 24.4515 19.9657C24.374 19.8882 24.2303 19.76 24.0205 19.5811C23.6711 19.3407 22.902 19.0688 21.7131 18.7655L20.487 19.9909C20.8603 20.0839 21.3381 20.2353 21.9203 20.4452C22.519 20.6551 22.8646 20.8065 22.9571 20.8995C23.066 21.0084 23.167 21.4512 23.26 22.2279C23.3689 23.0041 23.3689 23.4318 23.26 23.5111Z" fill="white"/>
<path fill-rule="evenodd" clip-rule="evenodd" d="M26.1258 10.7937L17.4582 19.4599C17.461 19.5114 17.4686 19.5625 17.4808 19.6126C17.5454 19.8763 17.6298 20.1347 17.7332 20.3857C17.7684 20.4767 17.9922 21.016 18.4087 22.0123C19.2626 22.0939 20.1023 22.2861 20.9067 22.5842C21.2605 22.7063 21.6037 22.8574 21.9328 23.0358C21.9851 23.0574 22.0327 23.089 22.073 23.1288C22.1572 23.2225 22.2145 23.3373 22.239 23.4609C22.3499 23.4707 22.4616 23.4653 22.5711 23.4449C22.7333 23.4271 22.8909 23.3796 23.036 23.3048C23.0441 23.2465 23.0476 23.1876 23.0466 23.1288C23.0389 22.8396 23.0125 22.5512 22.9676 22.2654V22.2594C22.9358 21.9623 22.8888 21.667 22.8268 21.3747C22.8098 21.296 22.7876 21.2186 22.7604 21.1429C22.7504 21.1183 22.7438 21.1037 22.7398 21.0964C22.7358 21.0891 22.7166 21.0811 22.6913 21.0665C22.6468 21.0419 22.5857 21.0121 22.504 20.9762C22.3406 20.9045 22.1121 20.8168 21.8159 20.7105C21.2374 20.502 20.7698 20.3545 20.4099 20.2642L19.925 20.1446L21.622 18.4483L21.7801 18.4882C22.3778 18.6409 22.8773 18.7871 23.2731 18.9272C23.669 19.0673 23.9718 19.2035 24.1791 19.3456L24.191 19.3543L24.2023 19.3636C24.3843 19.519 24.5231 19.6412 24.6134 19.7275C24.729 19.7673 24.8516 19.7829 24.9734 19.7734C25.0454 19.7725 25.117 19.7626 25.1866 19.7441C25.2068 19.739 25.2261 19.7307 25.2438 19.7196C25.2519 19.7038 25.2585 19.6874 25.2637 19.6704C25.2842 19.5975 25.2978 19.5228 25.3042 19.4472C25.3266 19.1599 25.3266 18.8712 25.3042 18.5838V18.5778C25.2973 18.2915 25.2698 18.0061 25.2218 17.7237C25.2094 17.6518 25.19 17.5813 25.1641 17.5132C25.1607 17.5045 25.1574 17.4972 25.1548 17.4919C24.7026 17.2637 24.235 17.0675 23.7553 16.9048L23.3083 16.7613L25.627 14.4427H25.7505C26.3377 14.4599 27.0284 14.6771 27.8135 15.0657C28.1617 15.2355 28.4995 15.426 28.825 15.6362C28.8861 15.6694 28.9362 15.7197 28.9691 15.781C28.9924 15.8241 29.0101 15.8701 29.0216 15.9178C29.0216 15.9178 29.0256 15.9251 29.0309 15.9331C29.051 15.9607 29.0732 15.9866 29.0973 16.0108C29.1253 16.027 29.1562 16.0374 29.1883 16.0413C29.2981 16.0589 29.4095 16.0638 29.5204 16.0559H29.5277C29.6404 16.0563 29.7527 16.0452 29.8631 16.0227L29.8917 16.0154C29.9246 15.9155 29.9444 15.8117 29.9508 15.7066C29.9717 15.4299 29.9744 15.1521 29.9588 14.875V14.8691C29.9556 14.5803 29.9352 14.292 29.8977 14.0056C29.881 13.8544 29.8444 13.7061 29.7887 13.5646C29.7483 13.5383 29.7053 13.5161 29.6605 13.4982C29.4683 13.4223 29.271 13.3599 29.0701 13.3116H29.0641C28.4664 13.1442 28.0014 12.9297 27.7152 12.6434C27.5 12.4282 27.308 12.1074 27.1314 11.7056V11.7023C27.0516 11.5076 26.9826 11.3536 26.9248 11.2373C26.8916 11.1652 26.8516 11.0965 26.8052 11.0321C26.7984 11.0253 26.7908 11.0193 26.7827 11.0142C26.7575 10.9975 26.7313 10.9824 26.7043 10.969C26.6054 10.9232 26.503 10.8854 26.3981 10.8561C26.3093 10.8274 26.2182 10.8065 26.1258 10.7937ZM23.0347 23.3447V23.3387V23.3447ZM17.4589 19.426C17.4591 19.4275 17.4591 19.4291 17.4589 19.4306C17.4589 19.4298 17.4589 19.4289 17.4589 19.428V19.426ZM26.1597 10.2198C26.2925 10.2327 26.4237 10.2585 26.5515 10.2969H26.5568C26.6935 10.3353 26.8267 10.3849 26.9553 10.445C27.0648 10.4944 27.1629 10.5659 27.2436 10.6548C27.3202 10.7535 27.3855 10.8604 27.4382 10.9736C27.5046 11.1065 27.5783 11.2725 27.6607 11.4724C27.8254 11.8457 27.9828 12.0915 28.1256 12.2329C28.3056 12.4129 28.6536 12.5942 29.2209 12.753C29.4481 12.8093 29.671 12.8821 29.8877 12.9708C29.9675 13.004 30.044 13.0447 30.1162 13.0924C30.1929 13.142 30.2553 13.2106 30.2975 13.2916C30.3864 13.4923 30.4441 13.7052 30.4689 13.9233C30.5095 14.2316 30.5317 14.5421 30.5353 14.8531C30.5524 15.1556 30.5491 15.459 30.5253 15.7611C30.5034 15.9895 30.4589 16.2061 30.3613 16.3588C30.274 16.4762 30.1453 16.5558 30.0013 16.5813C29.8523 16.6126 29.7005 16.6288 29.5483 16.6298C29.3906 16.6398 29.2323 16.6311 29.0767 16.6039C28.9337 16.5809 28.8008 16.516 28.6948 16.4173C28.5978 16.3283 28.5231 16.2177 28.477 16.0945C28.1824 15.908 27.8773 15.7388 27.5631 15.5877C26.873 15.2463 26.3071 15.0677 25.8561 15.0298L24.3677 16.5182C24.6958 16.6457 25.0611 16.8098 25.4629 17.0077L25.4888 17.021L25.5121 17.0389C25.5946 17.1079 25.6578 17.1972 25.6954 17.298C25.7363 17.4011 25.7668 17.5082 25.7864 17.6174C25.8397 17.9274 25.8706 18.2408 25.8787 18.5553C25.904 18.8725 25.904 19.1912 25.8787 19.5084C25.8679 19.6225 25.8457 19.7354 25.8123 19.8451C25.7823 19.9492 25.7282 20.0448 25.6542 20.124C25.4882 20.2901 25.2371 20.3392 24.9953 20.3479C24.7615 20.3655 24.5272 20.322 24.3152 20.2217L24.2774 20.2011L24.2468 20.1705C24.1804 20.1041 24.0476 19.9852 23.8443 19.8119C23.6995 19.7149 23.4525 19.6 23.0838 19.4692C22.7442 19.3496 22.3156 19.2221 21.798 19.0866L21.0368 19.8477C21.3251 19.9363 21.6519 20.0457 22.0172 20.1759C22.318 20.2815 22.5618 20.3751 22.7438 20.4541C22.8348 20.4947 22.9145 20.5325 22.9802 20.569C23.0457 20.604 23.1065 20.6474 23.1609 20.6979C23.2255 20.7687 23.2748 20.8522 23.3057 20.943C23.3427 21.0432 23.3724 21.146 23.3947 21.2505C23.4606 21.5615 23.5107 21.8756 23.5448 22.1916C23.5935 22.5029 23.6217 22.8171 23.6291 23.1321C23.631 23.2377 23.6219 23.3432 23.6019 23.4469C23.5828 23.5642 23.5205 23.6702 23.4272 23.7438C23.1972 23.8923 22.9356 23.9849 22.6634 24.0141C22.3977 24.054 22.1394 24.0593 21.9415 23.967H21.9381H21.9348C21.8638 23.9292 21.8055 23.8712 21.7674 23.8003C21.7391 23.7486 21.7157 23.6943 21.6977 23.6382L21.693 23.6249V23.6117C21.6883 23.5907 21.6823 23.5701 21.6751 23.5499C21.3698 23.3825 21.051 23.241 20.722 23.1268H20.7187C19.9073 22.8257 19.0578 22.6392 18.1948 22.5729L18.0208 22.5589L17.9544 22.3975C17.4994 21.3096 17.2484 20.7059 17.2059 20.5963C17.0905 20.3176 16.9966 20.0305 16.9249 19.7375C16.9005 19.6355 16.8887 19.5309 16.8897 19.426C16.8881 19.3058 16.9325 19.1896 17.0139 19.1012L25.7698 10.3374C25.8277 10.2799 25.9019 10.2417 25.9823 10.2278C26.0412 10.2183 26.101 10.2163 26.1603 10.2218L26.1597 10.2198Z" fill="#231F20"/>
<path d="M10.9884 23.5269C11.183 23.6494 11.4033 23.7254 11.632 23.7487C11.8893 23.7877 12.0766 23.7799 12.1939 23.7254C12.2251 23.7095 12.2564 23.655 12.2869 23.5614C12.2996 23.4843 12.3318 23.4118 12.3806 23.3508C12.3971 23.3349 12.4171 23.3231 12.439 23.3163C12.7613 23.1399 13.0979 22.991 13.4452 22.8713C14.2843 22.5601 15.1626 22.3672 16.0548 22.2981C16.5144 21.1982 16.7639 20.5976 16.8033 20.4962C17.0765 19.8019 17.1624 19.4034 17.061 19.3007L8.26265 10.505C8.20818 10.4496 8.04037 10.4613 7.7592 10.5402C7.47094 10.6261 7.28763 10.7146 7.20926 10.8058C7.1238 10.9086 6.99916 11.1592 6.83533 11.5577C6.66175 11.9478 6.48641 12.2325 6.3093 12.4118C6.0755 12.6456 5.66593 12.8449 5.08056 13.0096C4.53417 13.1486 4.23374 13.277 4.17927 13.3948C4.05441 13.6441 3.98423 14.1276 3.96873 14.8454C3.93773 15.5627 3.98068 16.0112 4.09758 16.191C4.15204 16.2769 4.34687 16.3236 4.68206 16.3311C5.01016 16.3471 5.22469 16.3041 5.32565 16.2023C5.39453 16.1426 5.44691 16.0662 5.47774 15.9804C5.49368 15.918 5.51294 15.8828 5.53619 15.8748C5.85974 15.6673 6.19579 15.4798 6.54242 15.3136C7.31464 14.931 7.96598 14.7318 8.49644 14.7159L10.4033 16.6227C9.88977 16.7973 9.38946 17.0086 8.90624 17.255C8.76543 17.3639 8.67953 17.8007 8.64853 18.5654C8.60426 19.3292 8.65119 19.7815 8.78934 19.9224C8.87502 20.008 9.0311 20.0552 9.25427 20.0625C9.43868 20.0784 9.62405 20.0461 9.79225 19.9688C9.87062 19.8914 10.015 19.7627 10.2253 19.583C10.5769 19.3412 11.3491 19.0682 12.542 18.764L13.7707 19.9928C13.3961 20.0866 12.9163 20.2387 12.3314 20.449C11.731 20.6594 11.3838 20.8115 11.29 20.9053C11.181 21.0143 11.0797 21.4588 10.9858 22.239C10.8791 23.0192 10.88 23.4485 10.9884 23.5269Z" fill="white"/>
<path fill-rule="evenodd" clip-rule="evenodd" d="M8.2552 10.1923C8.33479 10.2062 8.40838 10.2437 8.46641 10.2999L17.2648 19.0983C17.3466 19.187 17.3913 19.3037 17.3897 19.4244C17.3903 19.5295 17.3785 19.6343 17.3545 19.7366C17.2825 20.0312 17.1882 20.3198 17.0722 20.6C17.0297 20.7096 16.7773 21.316 16.3203 22.4086L16.2539 22.5706L16.0786 22.5846C15.2139 22.6516 14.3627 22.8385 13.5494 23.1398C13.2199 23.2534 12.9004 23.3943 12.5943 23.5609C12.5873 23.5814 12.5816 23.6022 12.577 23.6233V23.6366L12.573 23.6492C12.5546 23.7057 12.531 23.7604 12.5026 23.8126C12.4643 23.8837 12.4058 23.942 12.3346 23.98H12.3313C12.132 24.0723 11.8723 24.067 11.606 24.0272C11.3287 24.0015 11.0615 23.9104 10.8262 23.7615C10.733 23.6874 10.6705 23.5814 10.6509 23.4639C10.6311 23.3595 10.6222 23.2534 10.6243 23.1471C10.6318 22.831 10.6598 22.5158 10.708 22.2033C10.7558 21.8108 10.8056 21.494 10.8594 21.2582C10.8824 21.1534 10.9121 21.0503 10.9484 20.9494C10.9795 20.858 11.0293 20.774 11.0946 20.7029C11.1489 20.6523 11.2096 20.6089 11.2752 20.5741C11.3416 20.5376 11.4213 20.499 11.513 20.4592C11.6956 20.3788 11.9401 20.2852 12.2436 20.1796C12.6102 20.0467 12.9381 19.936 13.2272 19.8475L12.4634 19.083C11.9427 19.2189 11.5123 19.3471 11.1723 19.4676C10.9054 19.5528 10.6492 19.6682 10.4085 19.8116C10.2046 19.9856 10.0724 20.1045 10.0046 20.1723L9.97409 20.2028L9.93557 20.2227C9.72288 20.3237 9.48755 20.3674 9.2528 20.3496C9.00971 20.3416 8.75798 20.2918 8.58862 20.1251C8.51419 20.0456 8.45978 19.9495 8.42988 19.8448C8.39672 19.7346 8.37447 19.6214 8.36346 19.5068C8.33883 19.1884 8.33883 18.8687 8.36346 18.5503C8.37138 18.2346 8.40246 17.9198 8.45645 17.6085C8.47636 17.4989 8.50683 17.3915 8.54744 17.2877C8.58536 17.1864 8.64899 17.0967 8.73208 17.0274L8.75466 17.0094L8.78123 16.9962C9.18505 16.7969 9.55168 16.6331 9.88111 16.5047L8.38471 15.0103C7.93174 15.0481 7.36321 15.2275 6.67047 15.5702C6.35459 15.7214 6.04787 15.891 5.75191 16.0783C5.70444 16.203 5.62848 16.3149 5.53007 16.405C5.42313 16.5035 5.28965 16.5684 5.14618 16.5917C4.98993 16.6192 4.83094 16.6279 4.67262 16.6176C4.51971 16.6169 4.36726 16.6007 4.21765 16.5691C4.07306 16.5438 3.94372 16.4639 3.85634 16.3459C3.75738 16.1932 3.71354 15.976 3.69162 15.7482C3.66785 15.445 3.66453 15.1405 3.68166 14.8369C3.68527 14.5248 3.70745 14.2132 3.74808 13.9037C3.77231 13.6842 3.82987 13.4696 3.91877 13.2675C3.96145 13.1866 4.0241 13.118 4.10076 13.0682C4.1732 13.0201 4.25016 12.9791 4.33056 12.946C4.54952 12.858 4.77461 12.7861 5.00404 12.7308C5.57324 12.5707 5.92327 12.3888 6.10392 12.2088C6.24606 12.066 6.40347 11.8196 6.56885 11.445C6.65187 11.2457 6.72626 11.0763 6.79268 10.9435C6.84558 10.83 6.91108 10.7229 6.98795 10.624C7.06892 10.5345 7.1675 10.4626 7.27753 10.4128C7.40623 10.3528 7.53948 10.3031 7.67603 10.264H7.68068C7.80918 10.2257 7.94108 10.1999 8.07454 10.187C8.13474 10.1811 8.19545 10.1829 8.2552 10.1923ZM7.83743 10.8153C7.73225 10.8448 7.62963 10.8828 7.53058 10.9289C7.50297 10.9416 7.47652 10.9567 7.45154 10.9741C7.4434 10.9792 7.43583 10.9852 7.42896 10.992C7.38252 11.0569 7.34228 11.1261 7.30874 11.1985C7.25096 11.3148 7.18189 11.4695 7.10086 11.6635C6.92352 12.0673 6.73091 12.3894 6.51439 12.6053C6.22746 12.8929 5.75921 13.1081 5.16012 13.2754H5.1568C4.95488 13.3236 4.75666 13.3862 4.56369 13.4627C4.51916 13.4812 4.47627 13.5034 4.4355 13.5291C4.37549 13.6749 4.33571 13.8282 4.31728 13.9848C4.27956 14.2711 4.25893 14.5594 4.25551 14.8482V14.8548C4.23972 15.1328 4.24216 15.4114 4.26282 15.6891C4.26962 15.7948 4.2897 15.8992 4.32259 15.9999L4.35115 16.0072C4.46225 16.0294 4.57527 16.0405 4.68856 16.0404H4.6952C4.80765 16.0487 4.92069 16.0435 5.03194 16.0251C5.06368 16.021 5.09434 16.0109 5.12227 15.9952C5.14656 15.971 5.16878 15.9448 5.18868 15.9169C5.19208 15.912 5.19518 15.9069 5.19798 15.9016C5.20949 15.8537 5.22713 15.8075 5.25045 15.7641C5.28368 15.7028 5.33398 15.6525 5.39524 15.6193C5.72342 15.4098 6.06387 15.2202 6.41476 15.0514C7.20314 14.6616 7.89654 14.4431 8.48567 14.4258H8.60987L10.9385 16.7504L10.4941 16.8965C10.0124 17.0598 9.54276 17.2569 9.08874 17.4863C9.08874 17.4916 9.08277 17.4989 9.07945 17.5076C9.05343 17.5762 9.03386 17.6472 9.021 17.7195C8.97308 18.0027 8.94555 18.289 8.93864 18.5762V18.5822C8.91639 18.8696 8.91639 19.1583 8.93864 19.4457C8.94489 19.5214 8.95868 19.5964 8.97982 19.6695C8.98474 19.6864 8.99119 19.7029 8.99908 19.7186C9.01695 19.7299 9.03643 19.7384 9.05686 19.7439C9.12672 19.7621 9.19854 19.7717 9.27073 19.7724C9.39299 19.7821 9.51594 19.7668 9.63204 19.7273C9.72304 19.6403 9.86185 19.5174 10.0452 19.3613L10.0565 19.352L10.0684 19.3434C10.2763 19.2006 10.5858 19.0618 10.9783 18.9229C11.3709 18.7841 11.8763 18.636 12.4774 18.4826L12.6361 18.4421L14.3397 20.1457L13.8469 20.2692C13.4856 20.3578 13.0151 20.507 12.4355 20.7169C12.1389 20.8214 11.9088 20.9099 11.7455 20.9826C11.6631 21.0184 11.6013 21.049 11.5568 21.0736C11.5401 21.0825 11.5239 21.0925 11.5083 21.1034C11.5004 21.1186 11.4935 21.1344 11.4878 21.1506C11.4605 21.2263 11.4383 21.3037 11.4213 21.3824C11.3735 21.591 11.3264 21.8852 11.2799 22.2717V22.277C11.235 22.564 11.2086 22.8535 11.2008 23.1438C11.1998 23.2029 11.2034 23.2619 11.2115 23.3205C11.3565 23.3956 11.5141 23.4433 11.6764 23.4613C11.787 23.4817 11.8998 23.4869 12.0118 23.4766C12.0365 23.3529 12.0941 23.2381 12.1785 23.1445C12.2188 23.1043 12.2667 23.0724 12.3193 23.0508C12.65 22.8724 12.9948 22.7213 13.3501 22.5992C14.1577 22.2999 15.0007 22.107 15.8581 22.0253C16.2725 21.0251 16.5003 20.4831 16.5382 20.3901C16.6422 20.1385 16.7276 19.8797 16.7939 19.6157C16.8055 19.565 16.813 19.5135 16.8165 19.4616L8.11572 10.7609C8.02155 10.7709 7.92844 10.7891 7.83743 10.8153ZM16.8131 19.4284C16.8135 19.4299 16.8135 19.4315 16.8131 19.433C16.813 19.4315 16.813 19.4299 16.8131 19.4284ZM11.2148 23.361V23.355C11.2149 23.357 11.2149 23.359 11.2148 23.361Z" fill="#231F20"/>
</g>
<defs>
<clipPath id="clip0_309_3351">
<rect width="34" height="34" fill="white"/>
</clipPath>
</defs>
</svg>
