<svg xmlns="http://www.w3.org/2000/svg" viewBox="0 0 141.21 141.21"><defs><style>.cls-1{fill:#fff;}</style></defs><g id="Layer_2" data-name="Layer 2"><g id="Layer_1-2" data-name="Layer 1"><circle cx="70.61" cy="70.61" r="70.61"/><path class="cls-1" d="M111.61,30.19c-1.12,15.45-2.21,30.9-3.4,46.34a6.75,6.75,0,0,1-1.47,3.56Q89.67,100.51,72.47,120.8c-1.81,2.15-2.13,2.15-4,0Q51.34,100.45,34.23,80.06a6.79,6.79,0,0,1-1.45-3.57c-1.2-15.44-2.3-30.89-3.43-46.34,0-.58-.08-1.17-.07-1.75,0-1.83.95-1.95,2.25-1,.62.43,1.17.94,1.75,1.42C40.54,34.88,47.78,41,55.11,47.06a6.12,6.12,0,0,0,3.54,1.32q11.87.18,23.74,0a6.2,6.2,0,0,0,3.53-1.33c7.46-6.14,14.81-12.41,22.24-18.59a15.15,15.15,0,0,1,2.94-1.53l.83,3.19Zm-6.86,47.26a9.81,9.81,0,0,0-.69-1.34C97.71,68,91.37,59.82,84.93,51.75a4,4,0,0,0-2.76-1.11c-7.74-.09-15.49-.11-23.23,0a4.83,4.83,0,0,0-3.26,1.61C49.53,59.93,43.5,67.69,37.46,75.43c-.42.54-.75,1.16-1.22,1.91.8.21,1.27.36,1.75.45C44.45,79,50.9,80.28,57.36,81.48c3.63.68,3.65.69,2.8,4.36-1.15,5-2.3,9.89-3.38,14.84-.19.85-.44,2.06,0,2.6,2.81,3.57,5.79,7,8.78,10.55l3.21-2.23c-1.91-1.72-2.35-3.21-.16-4.8,1.14-.82,1.89-1.76,3.36-.42,2.39,2.19,2.46,2.12.48,5.38l3,2c2.52-3,4.86-5.87,7.39-8.61A4.92,4.92,0,0,0,84.15,100c-1.33-5.15-2.35-10.38-3.61-15.55-.41-1.7,0-2.5,1.77-2.71,1.57-.19,3.11-.57,4.66-.87Zm-50-27.74L31.63,30.29,34.86,75.2Zm31.43,0c6.64,8.49,13.07,16.7,19.92,25.47,1.09-15.19,2.12-29.67,3.21-44.9Zm-3.61,34.2c1.33,5.69,2.56,10.95,3.94,16.8l17.62-20.92ZM37.77,80l-.5.39,17.2,20.36,3.89-16.78Zm29.37,35.8,3.43,3.92,3.24-4C70.63,112.74,70.37,112.75,67.14,115.76Z"/><path d="M104.75,77.45,87,80.91c-1.55.3-3.09.68-4.66.87-1.77.21-2.18,1-1.77,2.71,1.26,5.17,2.28,10.4,3.61,15.55a4.92,4.92,0,0,1-1.31,5.15c-2.53,2.74-4.87,5.65-7.39,8.61l-3-2c2-3.26,1.91-3.19-.48-5.38-1.47-1.34-2.22-.4-3.36.42-2.19,1.59-1.75,3.08.16,4.8l-3.21,2.23c-3-3.55-6-7-8.78-10.55-.43-.54-.18-1.75,0-2.6,1.08-5,2.23-9.89,3.38-14.84.85-3.67.83-3.68-2.8-4.36C50.9,80.28,44.45,79,38,77.79c-.48-.09-1-.24-1.75-.45.47-.75.8-1.37,1.22-1.91,6-7.74,12.07-15.5,18.22-23.16a4.83,4.83,0,0,1,3.26-1.61c7.74-.13,15.49-.11,23.23,0a4,4,0,0,1,2.76,1.11C91.37,59.82,97.71,68,104.06,76.11A9.81,9.81,0,0,1,104.75,77.45Z"/><path d="M54.79,49.71,34.86,75.2,31.63,30.29Z"/><path d="M86.22,49.73,109.35,30.3c-1.09,15.23-2.12,29.71-3.21,44.9C99.29,66.43,92.86,58.22,86.22,49.73Z"/><path d="M82.61,83.93l21.56-4.12L86.55,100.73C85.17,94.88,83.94,89.62,82.61,83.93Z"/><path d="M37.77,80l20.59,4-3.89,16.78L37.27,80.35Z"/><path d="M67.14,115.76c3.23-3,3.49-3,6.67-.08l-3.24,4Z"/></g></g></svg>