<svg xmlns="http://www.w3.org/2000/svg" viewBox="0 0 17.33 27.65"><defs><style>.cls-1{fill:#134762;}</style></defs><g id="Layer_2" data-name="Layer 2"><g id="Layer_1-2" data-name="Layer 1"><path class="cls-1" d="M17.33,0c-.29,1.31-.58,2.47-.81,3.65-.14.72-.54.93-1.23.91-1.33,0-2.67-.06-4,0-.35,0-.92.34-1,.6-.43,2-.75,4-1.14,6.18h5.36c-.17,1.24-.26,2.31-.51,3.35-.06.27-.63.58-1,.59a29.1,29.1,0,0,1-3.49-.14c-.82-.08-1.08.28-1.19,1-.49,3.34-1,6.67-1.55,10.09L0,27.65C.49,25.38,1,23.22,1.41,21c1.13-6.48,2.18-13,3.3-19.45,0-.35.44-.88.71-.9C9.35.41,13.29.22,17.33,0Z"/></g></g></svg>