<svg xmlns="http://www.w3.org/2000/svg" viewBox="0 0 108.25 108.13"><defs><style>.cls-1{fill:#f7e785;}.cls-2{fill:#ae7052;}.cls-3{fill:#efc16d;}.cls-4{fill:#dfb669;}.cls-5{fill:#e69f53;}.cls-6{fill:#fcfdfb;}.cls-7{fill:#7fc964;}.cls-8{fill:#6bb868;}.cls-9{fill:#52925f;}.cls-10{fill:#d9edd3;}</style></defs><g id="Layer_2" data-name="Layer 2"><g id="Layer_1-2" data-name="Layer 1"><path class="cls-1" d="M8.76,24.16l.17-.11c2.43.4,3.55-.53,3.06-3.05l0,0q3.7.69,3-3l0,0c2.4.39,3.4-.62,3-3l0,0c2.52.49,3.44-.63,3.05-3.06l.11-.16c2.67.28,2.93,0,2.63-2.64l.37-.36c2.82.35,3,.18,2.63-2.64l.17-.11c2.43.4,3.54-.53,3.06-3l0,0,3.17.12c0,1,0,2-.07,3l-.71.52.17.17L33,6.07c3.06,0,6.13-.12,9.19.06,2.37.15,3.21-.73,2.74-3,9.94,0,19.89,0,29.83-.13,2.43,0,3.12.9,2.77,3.08-.82.35-2.3.64-2.34,1.08C75,9.35,73.55,9.09,72.14,9.09c-11,0-22,.06-33-.05-2.34,0-3.49.58-3.09,3.05-2.34-.38-3.34.63-3.05,2.95-2.31-.31-3.29.71-3,3-1.25.21-3.29-.48-2.77,1.89.13.58,1.81.81,2.77,1.2,0,2.31,0,4.62.06,6.92,0,1.48-.58,2.09-2.05,2.05-2.31-.07-4.61,0-6.92-.05-.26-1.15.58-3-1.67-2.9-2,.1-1.14,1.83-1.42,2.89q-3.45-.45-3,3c-2.33-.29-3.33.71-2.95,3.05C9.9,35.8,9,36.48,9,38.91q.2,15.18,0,30.35c0,2.44.9,3.12,3.06,2.82-.37,2.32.59,3.35,2.93,3,0,1.53-.07,3,2.14,3.18.35,0,.56,1.08,1,1.53A3.06,3.06,0,0,0,19.66,81a1.7,1.7,0,0,0,1.3-1c.21-1.75,1.35-1.86,2.69-1.84,7.41.12,6.31-1,6.41,6.53,0,.09,0,.19,0,.25-.56.75-1.13,1.5-1.71,2.24-.4.51-1.16,1-1.15,1.51s.77,1,1.21,1.47,1.11,1.19,1.68,1.77a13.52,13.52,0,0,0,1.3,1.22c.49.38,1.47.66,1.49,1,.12,2.33,1.76,2,3.22,2l0,3c-1,.34-2.81.59-2.85,1-.24,2.32-1.81,2-3.25,2h0c.44-2.36-.57-3.35-2.92-3.09q.42-3.42-3-3c.29-2.29-.73-3.27-3-3q.43-3.42-3-3c.28-2.27-.7-3.29-3-3,.28-2.27-.7-3.29-3-3,.28-2.27-.7-3.29-3-3q.42-3.42-3-3c-.31-1-.56-2.68-1-2.71-2.47-.22-2.09-1.9-2.09-3.45Q3,50.95,3,30l0,0c2.38.37,3.34-.68,3-3a.14.14,0,0,1,.15-.18C9,27.15,9.12,27,8.76,24.16Z"/><path class="cls-2" d="M108.25,42.57l0,11c0,1-.14,2-.15,3,0,6.38,0,12.75,0,19.13,0,.78-.58,2.24-.83,2.22-2.31-.13-2,1.69-2.38,3.12-2.37-.27-2.91,1.12-2.88,3-1.54,0-3.09-.16-3,2.15,0,.27-.63.63-1,.83s-.79,0-1,.17c-1.33,1.53-2.62,3.1-3.9,4.67-.14.18-.13.68-.2.68-2.39.08-2.6,2.4-3.8,3.69l-1.86,0c-.1-.1-.2-.2-.31-.29.24-1.33,0-2.93,2.13-3,.36,0,.66-.81,1-1.23s1-1.08,1.5-1.6,1-.92,1.5-1.4,1-1.08,1.5-1.6,1-.93,1.5-1.4S97.2,84.6,97.77,84s.84-.89,1.26-1.35l1.5-1.6,1.54-1.64c.4-.44.76-1.19,1.22-1.26,1.55-.25,1.79-1.22,1.78-2.5q0-18.32-.08-36.63,0-3,0-6c.63-2.51-.65-3.2-2.86-3l0,0c-.09-.95-.18-1.9-.28-2.85s-.21-1.73-.31-2.6c.11-.1.21-.21.31-.32.59,1.17.21,3.16,2.52,3,.2,0,.47.89.73,1.35s.56,1.3.84,1.3c2.49,0,2.13,1.7,2.15,3.25C108.11,36.3,108.19,39.44,108.25,42.57Z"/><path class="cls-2" d="M87.19,96.21c-.13,1.46.1,3.14-2.24,3-.26,0-.62.66-.82,1.06s0,.8-.16,1c-1.53,1.33-3.1,2.6-4.67,3.88-.36.29-1.08.54-1.08.81,0,2.51-1.69,2.16-3.26,2.16H33.21c-1.51,0-3.34.48-3.31-2.1,0-.29-.82-.62-1.28-.88s-1.4-.52-1.39-.72c.2-2.31-1.78-2-3-2.55a2.35,2.35,0,0,0,.33-.3l2.41.11,3,.46h0c-.26,2.21.6,3.11,2.93,3,5-.16,10-.09,15.07-.12l27.63.08c1.29,0,2.25-.24,2.5-1.79.07-.46.81-.82,1.26-1.21s1.08-.85,1.59-1.3,1.26-1.2,1.9-1.79c.34-.33,1-.64,1-1,0-2.13,1.67-1.9,3-2.13C87,96,87.09,96.11,87.19,96.21Z"/><path class="cls-3" d="M3,30Q3,51,3.06,71.87c0,1.55-.38,3.23,2.09,3.45.4,0,.65,1.76,1,2.71L6,78.14,3.21,78l-.64.07L.18,78c0-1-.12-1.76-.12-2.57C.06,61.3.12,47.21,0,33.13,0,30.76.63,29.73,3,30Z"/><path class="cls-4" d="M77.57,6.09C77.92,3.91,77.23,3,74.8,3c-9.94.15-19.89.1-29.83.13H33.14L30,3C29.65.66,30.64,0,33,0c14,.11,28.07.06,42.11.06h2.74c.08.94.15,1.73.21,2.51l.46,1c0,.82,0,1.64,0,2.45l-1,0Z"/><path class="cls-4" d="M30,3c.48,2.52-.63,3.45-3.06,3.05.08-.89.16-1.78.26-2.85Z"/><path class="cls-4" d="M12,21c.49,2.52-.63,3.45-3.06,3.05.08-.89.16-1.78.26-2.85Z"/><path class="cls-4" d="M15,18q.69,3.7-3,3Q11.48,17.51,15,18Z"/><path class="cls-4" d="M21,12c.39,2.43-.53,3.55-3.05,3.06.06-.89.12-1.78.2-2.8Z"/><path class="cls-4" d="M18,15c.38,2.4-.62,3.41-3,3C14.64,15.68,15.64,14.67,18,15Z"/><path class="cls-5" d="M6,27c.32,2.33-.64,3.38-3,3C2.6,27.62,3.66,26.67,6,27Z"/><path class="cls-4" d="M8.76,24.16c.36,2.83.21,3-2.63,2.64C5.64,24.56,6.51,23.67,8.76,24.16Z"/><path class="cls-4" d="M26.76,6.16c.36,2.82.19,3-2.63,2.64C23.64,6.56,24.51,5.67,26.76,6.16Z"/><path class="cls-4" d="M23.76,9.16c.3,2.67,0,2.92-2.63,2.64C20.64,9.56,21.51,8.67,23.76,9.16Z"/><path class="cls-2" d="M9.29,86.88a3.23,3.23,0,0,0-3-3,2.35,2.35,0,0,0,.33-.3L9,83.66l.47.48.11,2.41A2.35,2.35,0,0,0,9.29,86.88Z"/><path class="cls-2" d="M98.83,21.3a3.15,3.15,0,0,0,3,3c-.1.11-.2.22-.31.32l-2.41-.09L98.63,24c0-.79-.07-1.58-.11-2.38C98.63,21.52,98.73,21.41,98.83,21.3Z"/><path class="cls-2" d="M6.26,83.85a3.15,3.15,0,0,0-3-3,2.35,2.35,0,0,0,.33-.3L6,80.66l.47.48.11,2.41A2.35,2.35,0,0,1,6.26,83.85Z"/><path class="cls-2" d="M12.29,89.88a3.16,3.16,0,0,0-3-3,2.35,2.35,0,0,1,.3-.33l2.42.11.47.48.11,2.41A2.35,2.35,0,0,0,12.29,89.88Z"/><path class="cls-2" d="M21.29,98.88a3.23,3.23,0,0,0-3-3,2.35,2.35,0,0,0,.33-.3l2.42.11.47.48c0,.8.08,1.61.11,2.41A2.35,2.35,0,0,0,21.29,98.88Z"/><path class="cls-2" d="M92.83,15.3a3.2,3.2,0,0,0,3,3l-.33.3-2.38-.1L92.63,18c0-.79-.07-1.58-.11-2.38C92.63,15.52,92.73,15.41,92.83,15.3Z"/><path class="cls-2" d="M83.83,6.3a3.2,3.2,0,0,0,3,3l-.33.3-2.38-.1L83.63,9l-.11-2.38C83.63,6.52,83.73,6.41,83.83,6.3Z"/><path class="cls-2" d="M24.26,101.85a3.07,3.07,0,0,0-3-3,2.35,2.35,0,0,1,.3-.33l2.42.11.47.48.11,2.41A2.35,2.35,0,0,1,24.26,101.85Z"/><path class="cls-2" d="M15.29,92.88a3.16,3.16,0,0,0-3-3,2.35,2.35,0,0,1,.3-.33l2.42.11.47.48.11,2.41A2.35,2.35,0,0,0,15.29,92.88Z"/><path class="cls-2" d="M18.26,95.85a3.07,3.07,0,0,0-3-3,2.35,2.35,0,0,1,.3-.33l2.42.11.47.48c0,.8.08,1.61.11,2.41A2.35,2.35,0,0,1,18.26,95.85Z"/><path class="cls-2" d="M86.85,9.32a3.14,3.14,0,0,0,3,3l-.33.3-2.38-.1L86.62,12c0-.79-.07-1.58-.1-2.38Z"/><path class="cls-2" d="M80.83,3.3a3.14,3.14,0,0,0,3,3c-.1.11-.2.22-.31.32l-2.38-.1L80.63,6l-.11-2.38C80.63,3.52,80.73,3.41,80.83,3.3Z"/><path class="cls-2" d="M89.85,12.32a3.09,3.09,0,0,0,3,3c-.1.11-.2.22-.31.32l-2.38-.1L89.62,15l-.1-2.38Z"/><path class="cls-2" d="M95.85,18.32a3.09,3.09,0,0,0,3,3c-.1.11-.2.22-.31.32l-2.38-.1L95.62,21c0-.79-.07-1.58-.1-2.38Z"/><path class="cls-2" d="M78.55,3.58l-.46-1,2.74.73c-.1.11-.2.22-.31.32Z"/><path class="cls-2" d="M2.57,78.1,3.21,78c.13.84.25,1.68.38,2.52a2.35,2.35,0,0,1-.33.3Z"/><path class="cls-3" d="M104.94,33q0,3,0,6c-.94.31-2.67.54-2.71.94-.21,2.22-1.58,2.2-3.16,2.07,0-1-.09-1.93-.13-2.89.1-3.26-.12-3.45-2.94-2.58l-.5-.49c.85-2.81.75-2.92-2.47-3q.49-3.51-3-3c-.21-1.21.56-3.21-1.74-2.81-.58.11-.88,1.83-1.31,2.81-2.31,0-4.62,0-6.93,0-1.48,0-2.09-.57-2-2.06.06-2.31,0-4.62,0-6.93,1.11-.25,2.91.63,2.91-1.52s-1.79-1.28-2.91-1.52c.33-2.33-.66-3.34-3-3,.34-2.43-.75-3.35-3.1-3l-2.91.07H39l-3-.07,0,0C35.66,9.62,36.81,9,39.15,9c11,.11,22,.05,33,.05,1.41,0,2.87.26,3.09-1.92,0-.44,1.52-.73,2.34-1.08l0,0c.28,2,1,3.57,3.51,3-.38,2.4.65,3.38,3,3l0,0c-.38,2.39.62,3.41,3,3l0,0c-.38,2.4.63,3.4,3,3l0,0q-.58,3.6,3,3l0,0c-.38,2.4.63,3.4,3,3l0,0c-.39,2.4.62,3.4,3,3l0,0c-.4,2.43.63,3.42,3,3l0,0C101.75,32.25,102.43,33.52,104.94,33Z"/><path class="cls-5" d="M36.09,96.09c-1.46,0-3.1.34-3.22-2,0-.37-1-.65-1.49-1a13.52,13.52,0,0,1-1.3-1.22q-.85-.87-1.68-1.77c-.44-.48-1.21-1-1.21-1.47s.75-1,1.15-1.51c.58-.74,1.15-1.49,1.71-2.24,0-.06,0-.16,0-.25-.1-7.56,1-6.41-6.41-6.53-1.34,0-2.48.09-2.69,1.84a1.7,1.7,0,0,1-1.3,1,3.06,3.06,0,0,1-1.56-1.13c-.41-.45-.62-1.51-1-1.53C14.92,78.17,15,76.66,15,75.13l.19-.06c1.38,0,2.93-.31,3,1.91,0,.37.91,1,1.38,1s1.32-.64,1.35-1c.11-1.8,1.23-1.86,2.58-1.84,2.4,0,4.81.08,7.21,0,1.68-.07,2.43.48,2.36,2.26-.11,2.48-.06,5,0,7.46,0,1.28-.1,2.26-1.75,2.42-.44,0-1,1-1.12,1.52,0,.39.68.92,1.13,1.3s1.58.71,1.61,1.1c.15,2.16,1.57,2,3,1.92l.11,3.07Z"/><path class="cls-2" d="M36.12,99.07l0-3,0,0,3-.11h30l3,0c.38,2.42-.65,3.14-3.05,3.09-6-.14-12,0-18,0Z"/><path class="cls-3" d="M12.06,72.08C9.9,72.38,9,71.7,9,69.26Q9.2,54.1,9,38.91c0-2.43.9-3.11,3.06-2.82l0,0c0,1,.05,2,.07,3v30l-.07,3Z"/><path class="cls-3" d="M36.12,99.07l14.9.08c-.28.95-.5,2.68-.86,2.71-2.22.19-2.17,1.62-2.14,3.16-5,0-10.05,0-15.07.12-2.33.08-3.19-.82-2.93-3,1.44,0,3,.31,3.25-2C33.31,99.66,35.12,99.41,36.12,99.07Z"/><path class="cls-3" d="M21.1,30c2.31,0,4.61,0,6.92.06,1.47,0,2.09-.57,2.05-2.05-.07-2.3,0-4.61-.06-6.92l.11-.11c2.45-.29,3.16.87,3,3.19s-.08,4.64,0,7c0,1.38-.54,1.95-1.92,1.93a67.3,67.3,0,0,0-7,0c-2.32.19-3.49-.52-3.19-3Z"/><path class="cls-6" d="M33.14,3.14H45c.47,2.26-.37,3.14-2.74,3C39.17,6,36.1,6.08,33,6.07l0,0Z"/><path class="cls-3" d="M15,33q-.45-3.45,3-3l.11.12q.42,3.4-3,3Z"/><path class="cls-3" d="M12.06,36.09c-.38-2.34.62-3.34,2.95-3.05l.11.12,0,2.77-3,.18Z"/><path class="cls-3" d="M18.48,93.14,18,92.66c0-.84,0-1.68,0-2.52l.11-.11q3.43-.42,3,3l-.11.11Z"/><path class="cls-3" d="M18,30c.28-1.06-.59-2.79,1.42-2.89,2.25-.11,1.41,1.75,1.67,2.9l-.11.11H18.12Z"/><path class="cls-3" d="M15.48,90.14,15,89.66c0-.84,0-1.68,0-2.52l.11-.11c2.3-.29,3.28.73,3,3l-.11.11Z"/><path class="cls-3" d="M30,21.13c-1-.39-2.64-.62-2.77-1.2C26.72,17.56,28.76,18.25,30,18l.11.12V21Z"/><path class="cls-3" d="M12.48,87.14,12,86.66c0-.84,0-1.68,0-2.52l.11-.11c2.3-.29,3.28.73,3,3l-.11.11Z"/><path class="cls-3" d="M9.48,84.14,9,83.66c0-.84,0-1.68,0-2.52L9.11,81c2.3-.29,3.28.73,3,3l-.11.11Z"/><path class="cls-3" d="M6.48,81.14,6,80.66c0-.84,0-1.68,0-2.52L6.11,78q3.42-.42,3,3L9,81.14Z"/><path class="cls-3" d="M30,102.12l-3-.46V99.14l.11-.11C29.46,98.77,30.47,99.76,30,102.12Z"/><path class="cls-3" d="M21.48,96.14,21,95.66c0-.84,0-1.68,0-2.52l.11-.11c2.27-.27,3.29.71,3,3l-.11.11Z"/><path class="cls-3" d="M15,75.13c-2.34.3-3.3-.73-2.93-3h0l3,.18.11,2.82Z"/><path class="cls-3" d="M24.48,99.14,24,98.66c0-.84,0-1.68,0-2.52l.11-.11q3.42-.42,3,3l-.11.11Z"/><path class="cls-3" d="M30,18c-.29-2.29.69-3.31,3-3l.11.12q.42,3.4-3,3Z"/><path class="cls-3" d="M33,15c-.29-2.32.71-3.33,3.05-2.95l0,0-.18,3-2.78,0Z"/><path class="cls-6" d="M33,6.07l-.51.72-.17-.17.71-.52Z"/><path class="cls-5" d="M48,105c0-1.54-.08-3,2.14-3.16.36,0,.58-1.76.86-2.71,6,0,12-.16,18,0,2.4.05,3.43-.67,3.05-3.09l0,0c2.28.36,3.36-.57,3.11-2.91,2.23.23,3.23-.78,3-3,1.21-.26,3.27.42,2.72-1.92-.14-.59-1.78-.83-2.73-1.23,0-2.24,0-4.47-.09-6.7,0-1.57.67-2.28,2.24-2.24,2.23.06,4.46.06,6.7.09.32,1.1-.53,3,1.7,2.86,2-.1,1.12-1.82,1.45-2.85,2.22.22,3.25-.75,3-3,2.28.22,3.29-.78,2.93-3.08,2.45.37,3.06-.77,3-3.11-.1-9,0-18,0-26.92,1.58.13,2.95.15,3.16-2.07,0-.4,1.77-.63,2.71-.94q0,18.31.08,36.63c0,1.28-.23,2.25-1.78,2.5-.46.07-.82.82-1.22,1.26l-1.54,1.64L99,82.68c-.42.46-.83.92-1.26,1.35S96.61,85.14,96,85.68s-1,.92-1.5,1.4-1,1.08-1.5,1.6-1,.92-1.5,1.4-1,1.06-1.5,1.6-.66,1.22-1,1.23c-2.12.08-1.89,1.68-2.13,3-1.32.23-2.94,0-3,2.13,0,.32-.65.63-1,1-.64.59-1.25,1.21-1.9,1.79s-1.07.85-1.59,1.3-1.19.75-1.26,1.21c-.25,1.55-1.21,1.8-2.5,1.79Z"/><path class="cls-1" d="M102.11,30.07c-2.41.4-3.44-.59-3-3l2.76.17C101.93,28.17,102,29.12,102.11,30.07Z"/><path class="cls-1" d="M104.94,33c-2.51.48-3.19-.79-2.86-3C104.29,29.84,105.57,30.53,104.94,33Z"/><path class="cls-5" d="M101.83,27.22l-2.76-.17,0,0c0-.85,0-1.7,0-2.55l2.41.09C101.62,25.49,101.73,26.35,101.83,27.22Z"/><path class="cls-5" d="M24.48,99.14H27v2.52l-2.41-.11C24.56,100.75,24.52,99.94,24.48,99.14Z"/><path class="cls-5" d="M6,78.14c0,.84,0,1.68,0,2.52l-2.42-.11c-.13-.84-.25-1.68-.38-2.52Z"/><path class="cls-1" d="M81.06,9.08c-2.51.56-3.23-1-3.51-3l1,0,2.06,0,.51.52L81.05,9.1Z"/><path class="cls-5" d="M80.63,6,78.57,6c0-.81,0-1.63,0-2.45l2,0C80.56,4.42,80.59,5.21,80.63,6Z"/><path class="cls-5" d="M6.48,81.14H9c0,.84,0,1.68,0,2.52l-2.42-.11C6.56,82.75,6.52,81.94,6.48,81.14Z"/><path class="cls-5" d="M9.48,84.14H12c0,.84,0,1.68,0,2.52l-2.42-.11C9.56,85.75,9.52,84.94,9.48,84.14Z"/><path class="cls-1" d="M99.11,24.53c0,.85,0,1.7,0,2.55-2.4.38-3.41-.62-3-3L98.63,24Z"/><path class="cls-5" d="M98.63,24l-2.56.06,0,0c0-.85,0-1.7,0-2.56l2.38.1C98.56,22.42,98.59,23.21,98.63,24Z"/><path class="cls-5" d="M12.48,87.14H15c0,.84,0,1.68,0,2.52l-2.42-.11C12.56,88.75,12.52,87.94,12.48,87.14Z"/><path class="cls-5" d="M24,96.14c0,.84,0,1.68,0,2.52l-2.42-.11c0-.8-.07-1.61-.11-2.41Z"/><path class="cls-5" d="M21,93.14c0,.84,0,1.68,0,2.52l-2.42-.11c0-.8-.07-1.61-.11-2.41Z"/><path class="cls-1" d="M93.08,21.08q-3.6.59-3-3L92.63,18l.51.52Z"/><path class="cls-5" d="M93.08,21.08l.06-2.56,2.38.1c0,.8.07,1.59.1,2.38l-2.56.06Z"/><path class="cls-5" d="M92.63,18l-2.56.06,0,0c0-.85,0-1.7,0-2.56l2.38.1C92.56,16.42,92.59,17.21,92.63,18Z"/><path class="cls-1" d="M84.08,12.08c-2.37.38-3.4-.6-3-3v0L83.63,9l.51.52Z"/><path class="cls-5" d="M83.63,9l-2.58.1.09-2.58,2.38.1C83.56,7.42,83.59,8.21,83.63,9Z"/><path class="cls-5" d="M84.08,12.08l.06-2.56,2.38.1c0,.8.07,1.59.1,2.38l-2.56.06Z"/><path class="cls-5" d="M15.48,90.14H18c0,.84,0,1.68,0,2.52l-2.42-.11C15.56,91.75,15.52,90.94,15.48,90.14Z"/><path class="cls-1" d="M84.06,12.06,86.62,12l.52.52-.06,2.56C84.68,15.47,83.68,14.45,84.06,12.06Z"/><path class="cls-5" d="M87.08,15.08l.06-2.56,2.38.1c0,.8.07,1.59.1,2.38l-2.56.06Z"/><path class="cls-1" d="M87.06,15.06,89.62,15l.52.52c0,.86,0,1.71,0,2.56C87.69,18.46,86.68,17.46,87.06,15.06Z"/><path class="cls-1" d="M93.06,21.06,95.62,21l.52.52c0,.86,0,1.71,0,2.56C93.69,24.46,92.68,23.46,93.06,21.06Z"/><path class="cls-7" d="M39,12.18h30c0,2,0,3.95,0,5.93-2.38-.43-3.39.52-3,2.95a24.55,24.55,0,0,1,.1,2.72l-1.07.4-1.46.08c-.35.49-1,.95-1,1.47-.13,1.44,0,2.91,0,4.36H48.84c-4.39,0-3.84.13-3.87-3.68,0-.65-.09-1.3-.15-2.19H42.54l-.62-.61V18.35L39,18.07l0,0Z"/><path class="cls-2" d="M99.12,42.06c0,9-.13,17.95,0,26.92,0,2.34-.58,3.48-3,3.11h0l-.09-3q0-15,0-29.91a.28.28,0,0,1,0-.25l3,.24Z"/><path class="cls-5" d="M78.08,21.11c0,2.31,0,4.62,0,6.93,0,1.49.57,2.1,2,2.06,2.31-.06,4.62,0,6.93,0l.09.08c.3,2.45-.86,3.16-3.18,3a67.51,67.51,0,0,0-7,0c-1.38,0-2-.54-1.92-1.92a67.31,67.31,0,0,0,0-7c-.19-2.32.52-3.48,3-3.19Z"/><path class="cls-6" d="M39,12.18l0,5.93c-2.41.44-3.31-.73-3.18-3l.18-3Z"/><path class="cls-6" d="M69.08,18.11c0-2,0-3.95,0-5.93L72,12.11l.24,3c.06,2.18-.67,3.54-3.19,3Z"/><path class="cls-1" d="M95.55,36.1l.5.49c0,.78,0,1.56,0,2.34a.28.28,0,0,0,0,.25L90,39.09c-.37-2.34.69-3.31,3-3.11Z"/><path class="cls-5" d="M90.08,30.07q3.49-.51,3,3l-.09.08q-3.42.42-3-3Z"/><path class="cls-5" d="M78.08,18.07c1.12.24,2.91-.63,2.91,1.52s-1.8,1.27-2.91,1.52L78,21V18.15Z"/><path class="cls-5" d="M87,30.07c.43-1,.73-2.7,1.31-2.81,2.3-.4,1.53,1.6,1.74,2.81l-.09.08H87.12Z"/><path class="cls-5" d="M75.08,15.07c2.34-.34,3.33.67,3,3l-.09.08q-3.42.42-3-3Z"/><path class="cls-5" d="M72.22,15.09l-.24-3c2.35-.39,3.44.53,3.1,3l-.09.08Z"/><path class="cls-5" d="M95.55,36.1,93,36c0-.94,0-1.88,0-2.83l.09-.08C96.3,33.18,96.4,33.29,95.55,36.1Z"/><path class="cls-5" d="M96,38.93c0-.78,0-1.56,0-2.34,2.82-.87,3-.68,2.94,2.58Z"/><path class="cls-8" d="M15.18,75.07c0-.94-.07-1.88-.11-2.82,2.25.11,3.44-.77,3-3.18l0,0a20.33,20.33,0,0,1,2.92,0c2.41.34,3.55-.52,3.12-3l0,0,9,0c-.21,3.17-.21,3.17,3,3-.48,2.08.12,3.35,2.49,3.24l.05.8c-.43,2.3,1.48,2.35,3,2.83v8.26c-1.93-.47-2.79.26-2.59,2.27.11,1.05.1,2.12.14,3.18l-.55.55C36,89.51,36,91.3,36,93.05c-1.45.08-2.87.24-3-1.92,0-.39-1.09-.68-1.61-1.1s-1.17-.91-1.13-1.3c.07-.57.68-1.48,1.12-1.52,1.65-.16,1.77-1.14,1.75-2.42,0-2.49-.09-5,0-7.46.07-1.78-.68-2.33-2.36-2.26-2.4.09-4.81.05-7.21,0-1.35,0-2.47,0-2.58,1.84,0,.4-.87,1-1.35,1s-1.37-.61-1.38-1C18.11,74.76,16.56,75.1,15.18,75.07Z"/><path class="cls-1" d="M36,93.05c0-1.75.06-3.54,2.69-2.83a.43.43,0,0,0,.32.29l.09,5.5-3,.11C36,95.1,36,94.07,36,93.05Z"/><path class="cls-9" d="M39.05,96,39,90.52l.52-.53c1.9.41,2.8-.25,2.59-2.28C42,86.65,42,85.58,42,84.52l.54-.52c2.64.61,2.75-1.08,2.52-2.88-.3-2.4.59-3.2,3-3.09,4,.19,8,.19,12,0,2.39-.11,3.44.63,3,3s.6,3.42,3,3c0,1.15,0,2.31,0,3.46C66,89,66,90.19,68,90.22c.36,0,1,1,1,1.59a39.2,39.2,0,0,1,.06,4.2Z"/><path class="cls-1" d="M69.06,96a39.2,39.2,0,0,0-.06-4.2c-.06-.59-.65-1.59-1-1.59-2,0-2-1.27-1.94-2.69,0-1.15,0-2.31,0-3.46l0,0c2.38-.42,3.29.53,3.07,3-.09.94.46,2.77.71,2.77,2.42,0,2.23,1.7,2.4,3.22l-.2,3,0,0Z"/><path class="cls-7" d="M12.15,69.1v-30l5.93,0,0,0,0,1C17.39,41,17,41.74,18.6,42l5,0,.58.58c-.64,2.69,1.13,2.71,2.89,2.49,2.42-.29,3.18.62,3.07,3-.19,4.07-.17,8.15,0,12.22.09,2.21-.61,3.11-2.81,2.77s-3.73.33-3.25,3l0,0a19,19,0,0,1-2.92,0c-2.43-.34-3.54.54-3.12,3l0,0Z"/><path class="cls-6" d="M18.08,39.11l-5.93,0c0-1-.05-2-.07-3l3-.18C17.35,35.8,18.51,36.7,18.08,39.11Z"/><path class="cls-6" d="M12.15,69.1l5.93,0c.43,2.41-.76,3.29-3,3.18l-3-.18C12.1,71.08,12.13,70.09,12.15,69.1Z"/><path class="cls-7" d="M18.08,39.11c.43-2.41-.73-3.31-3-3.18l0-2.77q3.42.41,3-3H21c-.3,2.45.87,3.16,3.19,3a67.3,67.3,0,0,1,7,0c1.38,0,2-.55,1.92-1.93,0-2.32-.15-4.65,0-7s-.53-3.48-3-3.19V18.16q3.42.4,3-3l2.78,0c-.13,2.26.77,3.43,3.18,3l0,0c0,1.21.1,2.44,0,3.64-.18,2,.6,2.72,2.53,2.28l.58.58c0,1.75-.06,3.49-.1,5.23,0,1.59.51,3.53-2.21,3.43-.24,0-.71.55-.7.85,0,1.47-.59,2.07-2.07,2.12-.36,0-.63.94-1,1.38C34.72,39.09,33.4,40.6,32,42c-.26.26-1,.07-1.46.08l-6,.09L24,41.6c.44-1.92-.31-2.71-2.28-2.53-1.21.1-2.43,0-3.65,0Z"/><path class="cls-2" d="M87,78.16c-2.24,0-4.47,0-6.7-.09-1.57,0-2.28.67-2.24,2.24.06,2.23.06,4.46.09,6.7l-.17.18c-2.45.24-3.13-1-2.95-3.24s.08-4.63,0-7c0-1.37.55-2,1.92-1.92,2.31,0,4.64.15,7,0s3.48.5,3.24,2.95Z"/><path class="cls-2" d="M72,96.08c.06-1,.13-2,.2-3L75,93l.18.18C75.38,95.51,74.3,96.44,72,96.08Z"/><path class="cls-2" d="M78.13,87c1,.4,2.59.64,2.73,1.23.55,2.34-1.51,1.66-2.72,1.92A1.49,1.49,0,0,1,78,90c0-.94,0-1.87,0-2.8Z"/><path class="cls-2" d="M90.13,78.17c-.33,1,.54,2.75-1.45,2.85-2.23.11-1.38-1.76-1.7-2.86l.18-.17H90Z"/><path class="cls-2" d="M93.13,75.17c.25,2.25-.78,3.22-3,3L90,78q-.36-3.36,3-3Z"/><path class="cls-2" d="M96.06,72.09c.36,2.3-.65,3.3-2.93,3.08L93,75c0-.91,0-1.83.07-2.74l3-.15Z"/><path class="cls-2" d="M78.14,90.16c.22,2.23-.78,3.24-3,3L75,93q-.36-3.36,3-3Z"/><path class="cls-6" d="M24.54,42.18l6-.09c.5,0,1.2.18,1.46-.08,1.42-1.41,2.74-2.92,4.07-4.43.39-.44.66-1.37,1-1.38,1.48-.05,2.1-.65,2.07-2.12,0-.3.46-.86.7-.85,2.72.1,2.18-1.84,2.21-3.43,0-1.74.07-3.48.1-5.23l.39-.35h2.28c.06.89.15,1.54.15,2.19,0,3.81-.52,3.68,3.87,3.68H62.57a7,7,0,0,0,.93-2,33.22,33.22,0,0,0,.11-3.87l1.46-.08.89.43q.06,4.26.13,8.5c-3.49,0-7-.06-10.47,0a2,2,0,0,0-1.46,1.16c-.15.43.38,1.59.61,1.59,3.08,0,2.09,2.25,2.31,3.89.1.74.46,2.09.7,2.09,2.86,0,2.11,2,2.33,3.66.11.88.69,2.35,1.18,2.41,1.67.18,1.8,1.07,1.78,2.37s.08,2.48.13,3.72c-.08,2-.15,4-.23,6.06l-2.48.19-.63-.63c.06-1.06.1-2.13.2-3.19.2-2-.56-2.83-2.57-2.18l-.63-.63c.06-1.06.1-2.13.2-3.19.2-2-.56-2.83-2.57-2.18l-.63-.63c.06-1.06.1-2.13.2-3.19.2-2-.56-2.83-2.57-2.18l-.63-.63c.06-1.06.1-2.13.2-3.19.2-2-.56-2.83-2.57-2.18a5,5,0,0,0-.44-1.65,4.15,4.15,0,0,0-1.68-1.47c-.23-.1-1.33,1-1.23,1.23a4.09,4.09,0,0,0,1.47,1.68,5,5,0,0,0,1.65.44c-.07,1.06-.11,2.13-.21,3.19-.19,2,.56,2.82,2.58,2.18l.63.62c-.07,1.07-.11,2.14-.21,3.2-.19,2,.56,2.82,2.58,2.18l.63.62c-.07,1.07-.11,2.14-.21,3.2-.19,2,.56,2.82,2.58,2.18l.63.62c-.07,1.07-.11,2.14-.21,3.2-.19,2,.56,2.82,2.58,2.18l.63.62-.36,2.56c-.93.32-2.63.61-2.65,1-.13,2.38-1.72,2-3.19,2s-3.1-.31-3.15,2c0,.32-.94.85-1.47.9-1.4.12-2.82,0-4.23,0-.3-1-.59-2.75-.92-2.76-2.91-.08-2-2.14-2.27-3.73-.13-.84-.63-2.33-1-2.34-2.26,0-1.92-1.52-2-2.93-.06-1-.31-2.9-.54-2.91-3.06-.13-2.4-2.3-2.43-4.1,0-1.08.15-2.24-1.55-2.21s-1.44,1.27-1.45,2.3c0,5.24,0,10.48,0,15.71l0,0-9,0c-.48-2.69.9-3.39,3.25-3s2.9-.56,2.81-2.77c-.16-4.07-.18-8.15,0-12.22.11-2.42-.65-3.33-3.07-3-1.76.22-3.53.2-2.89-2.49Z"/><path class="cls-6" d="M66.14,23.78a24.55,24.55,0,0,0-.1-2.72c-.35-2.43.66-3.38,3-2.95l0,0c0,1.14-.06,2.29,0,3.42.23,2.45-.82,3.11-3,2.32Z"/><path class="cls-6" d="M41.57,24c-1.93.44-2.71-.31-2.53-2.28.1-1.2,0-2.43,0-3.64l2.88.28v5.26Z"/><path class="cls-10" d="M63.61,24.26a33.22,33.22,0,0,1-.11,3.87,7,7,0,0,1-.93,2c0-1.45-.1-2.92,0-4.36C62.65,25.21,63.26,24.75,63.61,24.26Z"/><path class="cls-10" d="M66.14,23.78l-.1,0-.08.8-.89-.43Z"/><path class="cls-10" d="M41.57,24l.35-.38.62.61-.39.35Z"/><path class="cls-9" d="M90,39.09l5.95.09q0,15,0,29.91l-5.94,0,0,0c.35-2.38-.61-3.38-3-3a21.31,21.31,0,0,1-3,0l0,0c.34-2.36-.59-3.42-3-3s-3.16-.7-3-3.07c.17-3.81,0-7.63,0-11.45,0-3.42,0-3.52,3.54-3.45,2,.05,2.82-.58,2.37-2.58.18-.18.35-.36.52-.55a22,22,0,0,1,2.44.11c2.38.35,3.57-.48,3.16-3Z"/><path class="cls-1" d="M90,69.07l5.94,0,.09,3-3,.15C90.78,72.36,89.61,71.47,90,69.07Z"/><path class="cls-8" d="M66,24.61l.08-.8c2.21.79,3.26.13,3-2.32-.1-1.13,0-2.28,0-3.42,2.52.56,3.25-.8,3.19-3l2.77.06q-.42,3.42,3,3V21c-2.45-.29-3.16.87-3,3.19a67.31,67.31,0,0,1,0,7c0,1.38.54,1.95,1.92,1.92a67.51,67.51,0,0,1,7,0c2.32.18,3.48-.53,3.18-3H90q-.42,3.42,3,3c0,1,0,1.89,0,2.83-2.28-.2-3.34.77-3,3.11h0c-1.22,0-2.44.1-3.65,0-2-.17-2.69.7-2.24,2.59l-1,.5-7.7.06c-.56-1.34-.09-3.48-2.62-3.31-.22,0-.7-.57-.7-.86,0-2.38-1.66-1.92-3.07-2h0c.13-3.16.13-3.16-3-3l0,0Q66,28.87,66,24.61Z"/><path class="cls-4" d="M42.51,84l-.54.52a.45.45,0,0,1-.33-.3V76c-1.57-.48-3.48-.53-3-2.83l.51-1,0,0c2.79-.83,3,1.22,3.38,3Z"/><path class="cls-6" d="M18,69.11c-.42-2.51.69-3.39,3.12-3a19,19,0,0,0,2.92,0c.43,2.52-.71,3.38-3.12,3A20.33,20.33,0,0,0,18,69.11Z"/><path class="cls-1" d="M41.64,84.22a.45.45,0,0,0,.33.3c0,1.06,0,2.13.1,3.19.21,2-.69,2.69-2.59,2.28a.44.44,0,0,0-.29-.32c0-1.06,0-2.13-.14-3.18C38.85,84.48,39.71,83.75,41.64,84.22Z"/><path class="cls-10" d="M36.05,69.09c-3.18.16-3.18.16-3-3l0,0c3.18-.19,3.18-.19,3,3Z"/><path class="cls-10" d="M38.54,72.33c-2.37.11-3-1.16-2.49-3.24h0c3.09-.15,3.09-.15,3.07,3.06l0,0Z"/><path class="cls-4" d="M39.19,89.67a.44.44,0,0,1,.29.32l-.52.53a.46.46,0,0,1-.32-.3C38.82,90,39,89.86,39.19,89.67Z"/><path class="cls-7" d="M38.54,72.33l.56-.22-.51,1C38.57,72.86,38.56,72.59,38.54,72.33Z"/><path class="cls-1" d="M42.51,84V75.19A39.49,39.49,0,0,0,46.73,75c.47-.07,1.21-.75,1.21-1.15,0-.58-.54-1.64-.88-1.65-2.39-.11-2.09-1.61-1.85-3.15,1.41,0,2.83.09,4.23,0,.53-.05,1.47-.58,1.47-.9.05-2.36,1.67-2,3.15-2s3.06.34,3.19-2c0-.37,1.72-.66,2.65-1,.16,1.52-.06,3.27,2.36,3.25.25,0,.66,1,.74,1.6.14,1,0,2,.11,3a1.36,1.36,0,0,0,2.37.85A9.21,9.21,0,0,0,66,67.47c0-.48-.88-.91-1.31-1.4s-1.36-1.26-1.52-2a21.65,21.65,0,0,1-.17-4c.08-2,.15-4,.23-6.06,2.32-.31,3.1.74,2.88,3-.14,1.42-.49,3.16,2,3.19.34,0,.89.89,1,1.42.63,4.29.6,4.3,4.9,4.49.25,0,.49.06.74.09a.43.43,0,0,0,.32.29c.24,1.48.17,2.66-1.84,2.68-.36,0-.68.9-1.07,1.35a19.53,19.53,0,0,1-1.48,1.54c-1.48,1.36-3,2.66-4.44,4.09-.25.25-.07,1-.07,1.46q0,3.24,0,6.48l0,0c-2.42.43-3.41-.58-3-3s-.65-3.16-3-3c-4,.19-8,.19-12,0-2.44-.11-3.33.69-3,3.09C45.26,82.92,45.15,84.61,42.51,84Z"/><path class="cls-9" d="M66,84.11q0-3.24,0-6.48c0-.5-.18-1.21.07-1.46,1.42-1.43,3-2.73,4.44-4.09a19.53,19.53,0,0,0,1.48-1.54c.39-.45.71-1.34,1.07-1.35,2,0,2.08-1.2,1.84-2.67l.52-.53,8.6.12,0,0c-.36,2.38.61,3.38,3,3a20,20,0,0,1,3,0l0,0c-.43,2.4.74,3.29,3,3.18,0,.91,0,1.83-.07,2.74q-3.36-.36-3,3h-2.8c.24-2.45-1-3.13-3.24-2.95s-4.64.08-7,0c-1.37,0-2,.55-1.92,1.92,0,2.32.15,4.65,0,7s.5,3.48,2.95,3.24V90q-3.36-.36-3,3l-2.74.07c-.17-1.52,0-3.23-2.4-3.22-.25,0-.8-1.83-.71-2.77C69.33,84.64,68.42,83.69,66,84.11Z"/><path class="cls-6" d="M18,39.07c1.22,0,2.44.1,3.65,0,2-.18,2.72.61,2.28,2.53l-.39.39-5,0c-.17-.62-.35-1.25-.53-1.87Z"/><path class="cls-10" d="M18.07,40.09c.18.62.36,1.25.53,1.87C17,41.74,17.39,41,18.07,40.09Z"/><path class="cls-10" d="M23.57,42,24,41.6l.58.58-.39.39Z"/><path class="cls-8" d="M74.64,66.22c-.25,0-.49-.08-.74-.09-4.3-.19-4.27-.2-4.9-4.49-.08-.53-.63-1.41-1-1.42-2.44,0-2.09-1.77-2-3.19.22-2.25-.56-3.3-2.88-3-.05-1.24-.15-2.48-.13-3.72S63,48.13,61.29,48c-.49-.06-1.07-1.53-1.18-2.41-.22-1.63.53-3.65-2.33-3.66-.24,0-.6-1.35-.7-2.09-.22-1.64.77-3.89-2.31-3.89-.23,0-.76-1.16-.61-1.59a2,2,0,0,1,1.46-1.16c3.48-.1,7,0,10.47,0l0,0c-.13,3.17-.13,3.17,3,3h0c-.1,1.52-.37,3.13,2,3.14.25,0,.73.38.73.56-.08,2.45,1.89,2.27,3.39,2.7q0,11.58,0,23.17Z"/><path class="cls-8" d="M45.21,69.07c-.24,1.54-.54,3,1.85,3.15.34,0,.89,1.07.88,1.65,0,.4-.74,1.08-1.21,1.15a39.49,39.49,0,0,1-4.22.17c-.39-1.83-.59-3.88-3.38-3,0-3.21,0-3.21-3.07-3.06.15-3.17.15-3.17-3-3,0-5.23,0-10.47,0-15.71,0-1-.29-2.27,1.45-2.3S36,49.22,36.06,50.3c0,1.8-.63,4,2.43,4.1.23,0,.48,1.89.54,2.91.09,1.41-.25,2.89,2,2.93.35,0,.85,1.5,1,2.34.23,1.59-.64,3.65,2.27,3.73C44.62,66.32,44.91,68.11,45.21,69.07Z"/><path class="cls-8" d="M63,60.1a21.65,21.65,0,0,0,.17,4c.16.75,1,1.37,1.52,2S66,67,66,67.47a9.21,9.21,0,0,1-.49,4.28,1.36,1.36,0,0,1-2.37-.85c-.16-1,0-2-.11-3-.08-.58-.49-1.6-.74-1.6-2.42,0-2.2-1.73-2.36-3.25l.36-2.56a.38.38,0,0,0,.23-.22Z"/><path class="cls-8" d="M59.63,59.89c-2,.64-2.77-.19-2.58-2.18.1-1.06.14-2.13.21-3.2a.38.38,0,0,0,.23-.22c2-.65,2.77.18,2.57,2.18-.1,1.06-.14,2.13-.2,3.19A.37.37,0,0,0,59.63,59.89Z"/><path class="cls-8" d="M56.63,53.89c-2,.64-2.77-.19-2.58-2.18.1-1.06.14-2.13.21-3.2a.38.38,0,0,0,.23-.22c2-.65,2.77.18,2.57,2.18-.1,1.06-.14,2.13-.2,3.19A.37.37,0,0,0,56.63,53.89Z"/><path class="cls-8" d="M51.49,42.29c2-.65,2.77.18,2.57,2.18-.1,1.06-.14,2.13-.2,3.19a.37.37,0,0,0-.23.23c-2,.64-2.77-.19-2.58-2.18.1-1.06.14-2.13.21-3.2A.38.38,0,0,0,51.49,42.29Z"/><path class="cls-8" d="M48.49,36.29c2-.65,2.77.18,2.57,2.18-.1,1.06-.14,2.13-.2,3.19a.37.37,0,0,0-.23.23c-2,.64-2.77-.18-2.58-2.18.1-1.06.14-2.13.21-3.19A.43.43,0,0,0,48.49,36.29Z"/><path class="cls-7" d="M48.49,36.29a.43.43,0,0,1-.23.23,5,5,0,0,1-1.65-.44,4.09,4.09,0,0,1-1.47-1.68c-.1-.23,1-1.33,1.23-1.23a4.15,4.15,0,0,1,1.68,1.47A5,5,0,0,1,48.49,36.29Z"/><path class="cls-7" d="M59.63,59.89a.37.37,0,0,1,.23-.23l.63.63a.38.38,0,0,1-.23.22Z"/><path class="cls-7" d="M56.63,53.89a.37.37,0,0,1,.23-.23l.63.63a.38.38,0,0,1-.23.22Z"/><path class="cls-7" d="M53.63,47.89a.37.37,0,0,1,.23-.23l.63.63a.38.38,0,0,1-.23.22Z"/><path class="cls-7" d="M50.63,41.89a.37.37,0,0,1,.23-.23l.63.63a.38.38,0,0,1-.23.22Z"/><path class="cls-1" d="M75.19,65.67l0-23.17a.41.41,0,0,0,.3-.27l7.7-.06.8.37c.45,2-.39,2.63-2.37,2.58-3.53-.07-3.53,0-3.54,3.45,0,3.82.13,7.64,0,11.45-.11,2.37.61,3.47,3,3.07s3.36.66,3,3L75.48,66A.44.44,0,0,0,75.19,65.67Z"/><path class="cls-1" d="M90.08,69.11a20,20,0,0,0-3,0c-2.43.34-3.4-.66-3-3a21.31,21.31,0,0,0,3,0C89.47,65.73,90.43,66.73,90.08,69.11Z"/><path class="cls-1" d="M84.19,41.67c-.45-1.89.22-2.76,2.24-2.59,1.21.1,2.43,0,3.65,0,.41,2.54-.78,3.37-3.16,3A22,22,0,0,0,84.48,42,.44.44,0,0,0,84.19,41.67Z"/><path class="cls-4" d="M84.19,41.67a.44.44,0,0,1,.29.32c-.17.19-.34.37-.52.55l-.8-.37Z"/><path class="cls-4" d="M75.46,42.23a.41.41,0,0,1-.3.27c-1.49-.43-3.46-.25-3.38-2.7,0-.18-.48-.56-.73-.56-2.35,0-2.08-1.62-2-3.14,1.41,0,3.11-.42,3.07,2,0,.29.48.87.7.86C75.37,38.75,74.9,40.89,75.46,42.23Z"/><path class="cls-10" d="M69.07,36.1c-3.16.14-3.16.14-3-3C69.2,32.94,69.2,32.94,69.07,36.1Z"/><path class="cls-4" d="M75.19,65.67a.44.44,0,0,1,.29.32l-.52.53a.46.46,0,0,1-.32-.3C74.82,66,75,65.86,75.19,65.67Z"/></g></g></svg>