<svg xmlns="http://www.w3.org/2000/svg" viewBox="0 0 22.02 30.02"><defs><style>.cls-1{fill:#053c71;}.cls-2{fill:#14c1f1;}.cls-3{fill:#49f5fa;}.cls-4{fill:#1c6fd2;}.cls-5{fill:#0456a8;}.cls-6{fill:#0590e4;}</style></defs><g id="Layer_2" data-name="Layer 2"><g id="Layer_1-2" data-name="Layer 1"><path class="cls-1" d="M10.62,5l.2,1.19C9.24,7.3,7.64,8.35,6.09,9.47a1.64,1.64,0,0,0-.66,1.06c-.14,2.33-.21,4.66-.24,7a1.61,1.61,0,0,0,.47,1.16C7.4,20,9.19,21.33,11,22.67c1.88-1.37,3.71-2.68,5.49-4.05a1.49,1.49,0,0,0,.41-1.06c0-2.25,0-4.51-.06-6.76a1.77,1.77,0,0,0-.6-1.24C14.68,8.4,13,7.33,11.42,6.23c.06-.41.13-.83.19-1.25,1.37.94,2.77,1.83,4.1,2.83,1,.75,2,1.31,3.23.65-1.1,1.13-1.09,2.54-1,4a16.6,16.6,0,0,0,0,2.12c.37,1.87-.51,4.15,1.68,5.47,0,0,0,.16,0,.24A2.74,2.74,0,0,1,19,20a1.8,1.8,0,0,0-2.54.18,19.14,19.14,0,0,1-3.4,2.49c-2.1,1.15-1.87,3-1.87,5.07,3.09-2.27,6-4.39,8.86-6.54.19-.14.22-.5.32-.75-.07-4-.13-8-.22-12a2.65,2.65,0,0,0-.31-.8,8.84,8.84,0,0,0-1-1c-1.51-1.07-3-2.11-4.57-3.17l.44-.16C13,2.84,10.9,2.8,11.49,0,14,1.65,16.3,3.45,18.87,4.88c2.22,1.23,2.9,2.86,2.84,5.3-.07,3.58.24,7.16.31,10.74a2,2,0,0,1-.7,1.39c-3,2.36-6.08,4.65-9.13,7a8.91,8.91,0,0,0-.77.74h-1c-.73-.64-1.42-1.31-2.19-1.9-2.53-2-5.11-3.88-7.62-5.87A1.82,1.82,0,0,1,0,20.93Q.29,14.26.7,7.58a1.64,1.64,0,0,1,.54-1.13c3-2.07,6.08-4.09,9.13-6.12a3.4,3.4,0,0,1,.46-.18c-.28,2.23-.28,2.23-3.4,3.08l.56.3L6.21,4.83l-4,2.91C2,11,1.83,14.34,1.7,17.65A22.55,22.55,0,0,0,2,20.48c0,.25-.07.63.06.73,2.86,2.2,5.75,4.36,8.7,6.59,0-3.72,0-3.73-2.65-5.75-.59-.45-1.22-.86-1.8-1.34-1-.83-2-1.73-3.37-.71-.11.08-.33,0-.49,0a3.83,3.83,0,0,0,1.7-3.32,36.17,36.17,0,0,1,.13-5.1,3,3,0,0,0-.83-2.88A3.16,3.16,0,0,0,6.12,8.1C7.55,7,9.12,6,10.62,5Z"/><path class="cls-2" d="M11.42,6.23C13,7.33,14.68,8.4,16.25,9.56a1.77,1.77,0,0,1,.6,1.24c.07,2.25.08,4.51.06,6.76a1.49,1.49,0,0,1-.41,1.06C14.72,20,12.89,21.3,11,22.67c-1.82-1.34-3.61-2.63-5.35-4a1.61,1.61,0,0,1-.47-1.16c0-2.33.1-4.66.24-7a1.64,1.64,0,0,1,.66-1.06C7.64,8.35,9.24,7.3,10.82,6.22l.23.74Zm4.76,4.15L6.45,18.15c1.3,1,2.51,1.74,3.6,2.66a1.32,1.32,0,0,0,1.89,0c1.2-.88,2.42-1.74,3.6-2.66a1.58,1.58,0,0,0,.61-1C16.2,15,16.18,12.89,16.18,10.38Z"/><path class="cls-3" d="M2.21,7.74l4-2.91L8,3.53a5.8,5.8,0,0,1,1.8.28c.38.2.56.8.83,1.22C9.12,6,7.55,7,6.12,8.1a3.16,3.16,0,0,1-2.71.63Z"/><path class="cls-2" d="M14.25,3.54c1.53,1.06,3.06,2.1,4.57,3.17a8.84,8.84,0,0,1,1,1l-.9.74c-1.26.66-2.23.1-3.23-.65C14.38,6.81,13,5.92,11.61,5c-.07-.77.17-1.25,1.07-1.25A12,12,0,0,0,14.25,3.54Z"/><path class="cls-4" d="M2.41,20c.16,0,.38,0,.49,0,1.4-1,2.36-.12,3.37.71.58.48,1.21.89,1.8,1.34,2.69,2,2.69,2,2.65,5.75-3-2.23-5.84-4.39-8.7-6.59-.13-.1-.05-.48-.06-.73Z"/><path class="cls-5" d="M20.37,20.48c-.1.25-.13.61-.32.75-2.88,2.15-5.77,4.27-8.86,6.54,0-2.08-.23-3.92,1.87-5.07a19.14,19.14,0,0,0,3.4-2.49A1.8,1.8,0,0,1,19,20a2.74,2.74,0,0,0,.7.23h0l.59.26Z"/><path class="cls-2" d="M2.41,20,2,20.48a22.55,22.55,0,0,1-.26-2.83c.13-3.31.33-6.61.51-9.91l1.2,1a3,3,0,0,1,.83,2.88,36.17,36.17,0,0,0-.13,5.1A3.83,3.83,0,0,1,2.41,20Z"/><path class="cls-4" d="M20.37,20.48l-.09,0-.59-.26h0c0-.08,0-.21,0-.24-2.19-1.32-1.31-3.6-1.68-5.47a16.6,16.6,0,0,1,0-2.12c-.09-1.43-.1-2.84,1-4l.9-.74a2.65,2.65,0,0,1,.31.8C20.24,12.5,20.3,16.49,20.37,20.48Z"/><path class="cls-6" d="M16.18,10.38c0,2.51,0,4.66,0,6.81a1.58,1.58,0,0,1-.61,1c-1.18.92-2.4,1.78-3.6,2.66a1.32,1.32,0,0,1-1.89,0c-1.09-.92-2.3-1.71-3.6-2.66Z"/><path class="cls-1" d="M19.69,20.25l.59.26Z"/></g></g></svg>