<svg xmlns="http://www.w3.org/2000/svg" viewBox="0 0 28.57 34"><defs><style>.cls-1{fill:#1f82d1;}.cls-2{fill:#08f5bb;}.cls-3{fill:#1c8ace;}.cls-4{fill:#17c1cc;}.cls-5{fill:#1cb4d2;}.cls-6{fill:#11d0c7;}.cls-7{fill:#0ed8c5;}.cls-8{fill:#13c9c9;}.cls-9{fill:#09e7be;}.cls-10{fill:#0be0c2;}.cls-11{fill:#07eebc;}.cls-12{fill:#22a3d8;}.cls-13{fill:#1facd5;}</style></defs><g id="Layer_2" data-name="Layer 2"><g id="Layer_1-2" data-name="Layer 1"><path class="cls-1" d="M28.5,20.75c-.32,5.56-3.39,9.24-8.14,11.68a19.38,19.38,0,0,1-3.51,1.1l-.39.14-.49.11-.52.22H15V32.51a24.88,24.88,0,0,0,4.83-1.8A14.14,14.14,0,0,0,25.7,22.5c.43-.3.84-.61,1.27-.89S28,21,28.5,20.75Z"/><path class="cls-2" d="M14.45,0,16,2.5c-.34.3-.69.57-1,.89C12.39,5.93,9.86,8.49,7.29,11A5.39,5.39,0,0,1,6,11.75L14.2,0Z"/><path class="cls-3" d="M15,32.51V34H12.7c-1.46-.49-2.93-1-4.38-1.49A2.43,2.43,0,0,1,7.68,32l3.77.48H15Z"/><path class="cls-3" d="M15.45,34l.52-.22c0,.07,0,.15,0,.22Z"/><path class="cls-4" d="M22.85,12.19l1.69,2.4-1.23,1.22c-1.89,1.91-3.77,3.82-5.66,5.71L7.41,31.77,4.62,30c.38-.32.78-.62,1.13-1q8-8,16-15.94A12.93,12.93,0,0,1,22.85,12.19Z"/><path class="cls-5" d="M7.41,31.77,17.65,21.52c1.89-1.89,3.77-3.8,5.66-5.71l1.23-1.22.91.66c.16.92.33,1.83.5,2.75a6,6,0,0,0-1.35.75Q18.47,24.83,12.4,31a7.57,7.57,0,0,0-1,1.55L7.68,32Z"/><path class="cls-6" d="M20.41,8.75l.82,1.43a8,8,0,0,1-.81,1.21Q12.26,19.58,4.08,27.73c-.29.29-.63.53-1,.8L1.89,26.77c.38-.32.77-.62,1.12-1L19.23,9.61A9.13,9.13,0,0,1,20.41,8.75Z"/><path class="cls-7" d="M20.41,8.75a9.13,9.13,0,0,0-1.18.86L3,25.8c-.35.35-.74.65-1.12,1L.8,24.54A6.31,6.31,0,0,0,2,23.77q8.17-8.11,16.31-16.28c.23-.23.42-.51.63-.76Z"/><path class="cls-8" d="M3.13,28.53c.32-.27.66-.51,1-.8q8.17-8.16,16.34-16.34a8,8,0,0,0,.81-1.21l1.62,2a12.93,12.93,0,0,0-1.14.94q-8,8-16,15.94c-.35.34-.75.64-1.13,1Z"/><path class="cls-9" d="M17,4l1.06,1.47c-.35.29-.73.55-1,.87L.35,22.91,0,20a6.46,6.46,0,0,0,1.33-.78c4.8-4.77,9.58-9.57,14.38-14.34A9.89,9.89,0,0,1,17,4Z"/><path class="cls-10" d="M.35,22.91,17,6.32c.32-.32.7-.58,1-.87L19,6.73c-.21.25-.4.53-.63.76Q10.19,15.64,2,23.77a6.31,6.31,0,0,1-1.22.77Z"/><path class="cls-11" d="M17,4a9.89,9.89,0,0,0-1.29.9c-4.8,4.77-9.58,9.57-14.38,14.34A6.46,6.46,0,0,1,0,20l.25-2.5c.45-.26.92-.5,1.35-.79.63-.44,1.23-.91,1.84-1.37L6,11.75A5.39,5.39,0,0,0,7.29,11c2.57-2.51,5.1-5.07,7.65-7.61.32-.32.67-.59,1-.89Z"/><path class="cls-2" d="M3.44,15.34c-.61.46-1.21.93-1.84,1.37-.43.29-.9.53-1.35.79l1.54-5.27Z"/><path class="cls-3" d="M26,18c-.17-.92-.34-1.83-.5-2.75l1-2.71a13.14,13.14,0,0,1,2.09,8.21c-.51.29-1,.55-1.53.86s-.84.59-1.27.89v-.75Z"/><path class="cls-3" d="M16.46,33.67l.39-.14Z"/><path class="cls-12" d="M25.7,21.75v.75a14.14,14.14,0,0,1-5.92,8.21A24.88,24.88,0,0,1,15,32.51h0a5.45,5.45,0,0,1,.75-1.34q4.18-4.28,8.45-8.46A8,8,0,0,1,25.7,21.75Z"/><path class="cls-13" d="M25.7,21.75a8,8,0,0,0-1.55.95q-4.26,4.18-8.45,8.46A5.45,5.45,0,0,0,15,32.5h-3.5a7.57,7.57,0,0,1,1-1.55q6.06-6.14,12.2-12.2A6,6,0,0,1,26,18C25.86,19.25,25.78,20.5,25.7,21.75Z"/></g></g></svg>