<svg width="30" height="28" viewBox="0 0 30 28" fill="none" xmlns="http://www.w3.org/2000/svg">
<path d="M6.92064 2.07031L29.3522 17.3865L23.8046 25.5873L1.37305 10.1505L6.92064 2.07031Z" fill="url(#paint0_linear_363_4680)"/>
<path d="M29.3525 17.3856C27.4229 20.1594 20.9105 19.074 14.7599 14.7324C8.60932 10.3908 5.11193 4.8432 6.92092 2.06941C8.72992 -0.704388 15.3629 0.381011 21.5135 4.7226C27.7847 8.823 31.1615 14.6118 29.3525 17.3856Z" fill="url(#paint1_linear_363_4680)"/>
<path d="M23.8047 25.4656C21.8751 28.2394 15.3627 27.154 9.21211 22.8124C3.06151 18.4708 -0.435881 12.9232 1.49372 10.0288C3.42331 7.13441 9.93571 8.3404 16.0863 12.682C22.2369 17.0236 25.6137 22.6918 23.8047 25.4656Z" fill="url(#paint2_linear_363_4680)"/>
<path d="M29.3514 17.3852L23.8038 25.586C21.8742 28.3598 15.3619 27.1538 9.21127 22.9328C8.03435 22.1157 6.90678 21.2298 5.83447 20.2796C7.02095 20.05 8.08851 19.4094 8.84947 18.4706C10.7791 16.4204 11.7439 15.938 12.5881 16.0586C13.4323 16.1792 14.3971 16.9028 15.9649 18.953C17.5327 21.0032 19.7035 21.6062 21.0301 20.5208C21.1507 20.4002 21.2712 20.4002 21.3918 20.2796C22.4772 19.4354 22.839 19.0736 24.8892 15.2144C25.3095 14.4438 25.9837 13.8425 26.7971 13.5127C27.6106 13.1829 28.5132 13.145 29.3514 13.4054C29.6515 14.0259 29.8073 14.7061 29.8073 15.3953C29.8073 16.0845 29.6515 16.7648 29.3514 17.3852Z" fill="#0E0F23"/>
<path fill-rule="evenodd" clip-rule="evenodd" d="M28.5079 16.9036C26.8195 19.3156 20.9101 18.1096 15.2419 14.1298C9.57369 10.15 6.07629 5.08484 7.76469 2.67284C9.45309 0.260842 15.3625 1.46684 21.0307 5.44664C26.6989 9.42643 30.0757 14.4916 28.5079 16.9036ZM23.2015 13.2856C22.3573 14.4916 19.4629 13.8886 16.5685 11.959C13.6741 10.0294 12.1063 7.49683 12.9505 6.29083C13.7947 5.08484 16.6891 5.68783 19.5835 7.61743C22.4779 9.54703 24.0457 12.0796 23.2015 13.2856Z" fill="white"/>
<path d="M6.43797 4.84438C6.43797 4.72378 6.31737 4.60318 6.19677 4.72378C6.07617 4.84438 5.95557 4.84438 5.95557 4.96498C6.07609 5.23334 6.15732 5.51766 6.19677 5.80918C6.19677 5.92978 6.31737 6.05038 6.43797 5.92978C6.55857 5.80918 6.67917 5.80918 6.55857 5.68858C6.56882 5.40225 6.52799 5.11639 6.43797 4.84438Z" fill="white"/>
<path d="M7.041 6.77212C7.041 6.65152 6.9204 6.53092 6.7998 6.65152C6.6792 6.77212 6.6792 6.77212 6.6792 6.89272C8.41018 10.438 11.0797 13.4412 14.3976 15.5759C14.5182 15.6965 14.6388 15.5759 14.7594 15.5759C14.88 15.5759 14.7594 15.3347 14.7594 15.2141C11.4541 13.1696 8.78188 10.2469 7.041 6.77212Z" fill="white"/>
<path d="M21.6338 18.5898C21.5132 18.5898 21.3926 18.5898 21.3926 18.7104C21.3926 18.831 21.3926 18.9516 21.5132 18.9516C21.875 19.0722 22.3574 19.1928 22.7192 19.3134C22.8398 19.3134 22.9604 19.3134 22.9604 19.1928C22.9604 19.0722 22.9604 18.9516 22.8398 18.9516C22.478 18.831 21.9956 18.7104 21.6338 18.5898Z" fill="white"/>
<path d="M23.8052 19.0742C23.7412 19.0742 23.6798 19.0996 23.6346 19.1449C23.5894 19.1901 23.564 19.2514 23.564 19.3154C23.564 19.3794 23.5894 19.4407 23.6346 19.486C23.6798 19.5312 23.7412 19.5566 23.8052 19.5566C24.7614 19.7146 25.7335 19.7551 26.6996 19.6772C26.7635 19.6772 26.8249 19.6518 26.8701 19.6066C26.9153 19.5613 26.9408 19.5 26.9408 19.436C26.9408 19.372 26.9153 19.3107 26.8701 19.2655C26.8249 19.2202 26.7635 19.1948 26.6996 19.1948C25.7335 19.2752 24.7612 19.2347 23.8052 19.0742Z" fill="white"/>
<defs>
<linearGradient id="paint0_linear_363_4680" x1="11.3225" y1="-0.112544" x2="15.7727" y2="15.1675" gradientUnits="userSpaceOnUse">
<stop stop-color="#03B8FF"/>
<stop offset="1" stop-color="#FA52A0"/>
</linearGradient>
<linearGradient id="paint1_linear_363_4680" x1="560.189" y1="-4046.95" x2="615.034" y2="-3807.07" gradientUnits="userSpaceOnUse">
<stop stop-color="#03B8FF"/>
<stop offset="1" stop-color="#FA52A0"/>
</linearGradient>
<linearGradient id="paint2_linear_363_4680" x1="412.956" y1="-4044.89" x2="468.931" y2="-3803.04" gradientUnits="userSpaceOnUse">
<stop stop-color="#03B8FF"/>
<stop offset="1" stop-color="#FA52A0"/>
</linearGradient>
</defs>
</svg>
