<svg xmlns="http://www.w3.org/2000/svg" xmlns:xlink="http://www.w3.org/1999/xlink" viewBox="0 0 208.55 208.55"><defs><style>.cls-1{fill:#4eab8f;}.cls-2{fill:url(#linear-gradient);}.cls-3{fill:url(#linear-gradient-2);}.cls-4{fill:url(#linear-gradient-3);}.cls-5{fill:url(#linear-gradient-4);}.cls-6{fill:url(#linear-gradient-5);}.cls-7{fill:url(#linear-gradient-6);}.cls-8{fill:url(#linear-gradient-7);}.cls-9{fill:url(#linear-gradient-8);}</style><linearGradient id="linear-gradient" x1="444.55" y1="-96.37" x2="435.66" y2="-144.17" gradientTransform="matrix(1, 0, 0, -1, -317.63, 17.07)" gradientUnits="userSpaceOnUse"><stop offset="0" stop-color="#010101"/><stop offset="1" stop-color="#010101"/></linearGradient><linearGradient id="linear-gradient-2" x1="426.52" y1="-22.18" x2="412.78" y2="-96.05" xlink:href="#linear-gradient"/><linearGradient id="linear-gradient-3" x1="375.59" y1="-50.78" x2="364.01" y2="-113.03" xlink:href="#linear-gradient"/><linearGradient id="linear-gradient-4" x1="430.57" y1="-10.23" x2="416.88" y2="-83.82" xlink:href="#linear-gradient"/><linearGradient id="linear-gradient-5" x1="367.49" y1="-55.64" x2="365.98" y2="-63.79" xlink:href="#linear-gradient"/><linearGradient id="linear-gradient-6" x1="500.01" y1="-55.41" x2="482.34" y2="-150.42" xlink:href="#linear-gradient"/><linearGradient id="linear-gradient-7" x1="396.4" y1="-58.07" x2="391.55" y2="-84.15" xlink:href="#linear-gradient"/><linearGradient id="linear-gradient-8" x1="448.2" y1="-62.67" x2="428.25" y2="-169.91" xlink:href="#linear-gradient"/></defs><g id="Layer_2" data-name="Layer 2"><g id="Layer_1-2" data-name="Layer 1"><circle class="cls-1" cx="104.27" cy="104.27" r="104.27"/><path class="cls-2" d="M87.6,155.58c60.09-16.09,69.75-36.48,69.75-36.48-13.41,16.09-64.53,28.18-64.53,28.18Z"/><path class="cls-3" d="M168.75,83.15s-9.18-35.73-38.23-39.85-43.41,3.89-43.41,3.89l-2.62,6a5.36,5.36,0,0,1-4.63,3.89l-7.35-.69a9.12,9.12,0,0,0-2.93.8c-4.07,1.87-15.83,7.3-20.8,9.28-6,2.42-20.46,6.58-12.41,14.62,0,0-2-6,8.05-9.25S78.23,63,85.07,67.45,82.23,105.28,79,105.28H69.35s6.84,6.44,12.88,4.42,7.63-4.42,7.63-4.42,5.63-29.39,8.44-33.4S155.07,53,168.75,83.15ZM95.3,67.45l-1-3c41.18-12.94,59.77,1.42,59.77,1.42C125.69,55,95.3,67.45,95.3,67.45Z"/><path class="cls-4" d="M82.49,72.41s-9.65-1.35-19,10.2c-10,12.28-18.25,32.73-38,33.53,0,0,10.6,3.49,17.85,0,0,0-9.39,9.13-21.47,9.4,0,0,18.89,1.84,27.9-10.74C61,99.09,63.44,78.05,82.49,72.41Z"/><path class="cls-5" d="M36.88,88.08a27.34,27.34,0,0,0,4.84,2.1S38,86,37,83.78l-3.24-1.25-3.21-5.15a24.71,24.71,0,0,0,1.31,5c-1.92-2.76-3.25-6-1.58-8.49,3.62-5.43,21.33-10.06,26.56-13.69,3.46-2.4,14-8.4,19.84-12.73a34.26,34.26,0,0,1,12-5.62c97.38-24.26,88.53,63.43,88.53,63.43,8.59-60.23-31.79-75.66-58.33-75.66S73,38.88,71.77,40.09,61.3,52.16,54.87,56.18,25.08,66.24,25.47,74.7C25.84,82.27,35,87.15,36.88,88.08Z"/><path class="cls-6" d="M41.18,76.16a16,16,0,0,0,15.16,5C51.24,80.6,48,72.37,48,72.37,41.58,73.52,41.18,76.16,41.18,76.16Zm11,4.3s-4.16.4-9.39-5l1.47-1.21S47.16,79,52.18,80.46Z"/><path class="cls-7" d="M181.76,72.37s15.56,49.41-24.41,79.19l-3.28,13.95S201.88,132.41,181.76,72.37Z"/><path class="cls-8" d="M80.75,96.29s4.83-14.1,3.49-20.13c0,0-2.82,16.51-8.85,22.28l-8,1.47s7.11,1.61,9.92,1.61S80.75,96.29,80.75,96.29Z"/><path class="cls-9" d="M164.59,129.74c12.78-25.72-5.36-60.81-62.66-46,0,0,49-9.5,59.17,19.22,14.06,39.57-62.78,57.43-81.84,60.63l-11.94,15.3S150.75,157.6,164.59,129.74Z"/></g></g></svg>