<svg xmlns="http://www.w3.org/2000/svg" viewBox="0 0 25.55 24.32"><defs><style>.cls-1{fill:#e0167e;}.cls-2{fill:#8264fe;}.cls-3{fill:#1b72f6;}.cls-4{fill:#2269f8;}.cls-5{fill:#6d78fe;}.cls-6{fill:#d31c75;}</style></defs><g id="Layer_2" data-name="Layer 2"><g id="Layer_1-2" data-name="Layer 1"><path class="cls-1" d="M12.93,4.15c-2.86.45-4,1.56-4.5,4.47a2.12,2.12,0,0,1-2.19,1.8,2.16,2.16,0,0,1-2-2.31A8.76,8.76,0,0,1,12.45,0c.49,0,1,.05,1.49.07C13.6,1.43,13.27,2.79,12.93,4.15Z"/><path class="cls-2" d="M5.2,18.47A4.88,4.88,0,0,0,11,19.54a2,2,0,0,1,2.68,1.07,2.08,2.08,0,0,1-.92,2.67C9.1,25.56,3.32,23.91,1.35,20c.92-.26,1.85-.47,2.74-.79A5.08,5.08,0,0,0,5.2,18.47Z"/><path class="cls-3" d="M21.25,16.76a4.72,4.72,0,0,0-1.85-5,2,2,0,0,1-.46-3,2,2,0,0,1,3-.33,8.56,8.56,0,0,1,2.75,10.75c-.65-.53-1.28-1.07-1.95-1.57C22.26,17.34,21.75,17.07,21.25,16.76Z"/><path class="cls-4" d="M21.25,16.76c.5.31,1,.58,1.48.93.67.5,1.3,1,1.95,1.57A8.3,8.3,0,0,1,15,24L15.79,20A4.68,4.68,0,0,0,21.25,16.76Z"/><path class="cls-5" d="M5.2,18.47a5.08,5.08,0,0,1-1.11.78c-.89.32-1.82.53-2.74.79A8.21,8.21,0,0,1,2.24,9.9l3.22,2.53C3.87,14.19,3.82,16.29,5.2,18.47Z"/><path class="cls-6" d="M12.93,4.15c.34-1.36.67-2.72,1-4.08a8.21,8.21,0,0,1,7.17,5.84L17.35,7.36A4.73,4.73,0,0,0,12.93,4.15Z"/><path class="cls-6" d="M15.23,9A2.28,2.28,0,1,1,13,6.59,2.28,2.28,0,0,1,15.23,9Z"/><path class="cls-4" d="M19,15.48a2.32,2.32,0,0,1-2.31,2.27,2.32,2.32,0,0,1,.09-4.64A2.33,2.33,0,0,1,19,15.48Z"/><path class="cls-5" d="M8.94,17.78a2.17,2.17,0,0,1-2.29-2.26,2.18,2.18,0,0,1,2.25-2.3,2.2,2.2,0,0,1,2.3,2.26A2.22,2.22,0,0,1,8.94,17.78Z"/></g></g></svg>